<svg xmlns="http://www.w3.org/2000/svg" version="1.1" xmlns:xlink="http://www.w3.org/1999/xlink"
    preserveAspectRatio="none" x="0px" y="0px" width="1098px" height="801px" viewBox="0 0 1098 801">
    <defs>
        <g id="Layer0_0_FILL">
            <path fill="white" stroke="none"
                d="
M 557.3 759.9
Q 556.55 761.15 555.05 763.9 553.6 766.5 552.75 767.85 551.45 769.9 548.5 773.85 546.2 777.4 546.05 780.4 545.9 783.25 547.65 786.4 548.7 788.4 551.35 791.8 555.05 796.45 557.95 798.7 562.15 801.9 566.3 801.6 569.55 801.3 572.85 798.9 575.05 797.3 578.2 793.9 581.2 790.55 582.45 788.65 584.55 785.55 585 782.6 587.15 782.85 589.7 784.5 591.2 785.4 594 787.55 596.5 789.25 598.9 789.75 601.75 790.35 603.8 788.95 607.15 786.8 606.65 780.05 606.2 773.15 603.35 766.85 602.25 764.15 602 763.3 601.45 761.2 602.05 759.7 602.5 758.65 603.7 757.6 605.15 756.45 605.8 755.85 608.1 753.85 609.5 751.05 610.9 748.2 611.05 745.2 611.3 741.35 609.2 739.25 606.95 736.95 601.6 737.35 589.35 738.15 578.6 745.4 577.65 746.05 575.6 747.45 573.85 748.6 572.45 749.25 571.45 749.8 569.75 750.35 567.5 751.1 567.05 751.25 561.05 753.85 557.3 759.9
M 525.95 681.6
Q 522.85 684.85 522.3 689.85 521.8 694.5 523.6 699 524.4 701 524.45 701.15 524.8 702.35 524.5 703.25 524.25 704.2 523.4 705.1 523 705.5 521.75 706.45 518.65 709.4 517.8 713.4 517.35 715.35 517.7 717.1 518.15 719.1 519.55 720.2 520.5 721.1 522.1 721.45 522.85 721.65 525.05 721.85 526.15 721.9 544.1 723.05
L 544.5 736.95
Q 544.5 740.15 545.6 741.55 546.5 742.5 548.1 742.95 549.1 743.2 551 743.3 557.3 743.8 560.8 742.65 563.35 741.8 565.05 740 566.95 738.05 567.2 735.7 573.7 735.4 577.6 734.05 583.1 732.1 584.9 727.8 586.2 724.6 585 720.8 583.9 717.3 581.15 714.5 579.05 712.3 575.4 709.95 571.2 707.4 569.15 706 561.35 701.1 559.6 695.25 558.85 690.95 558.35 688.9 557.45 685.2 555.3 683.9 553.35 682.75 550.45 683.45 549.7 683.65 548.8 684 548.6 683.15 548.1 682.4 550.35 681.3 550.7 679.75 551.1 677.65 548.5 676.45 546.25 675.45 543.55 675.65 537.3 676.2 533.95 677.1 528.8 678.5 525.95 681.6
M 381.4 730.75
Q 379.35 730.65 376.9 732.4 373.9 734.4 369 739.15 363.95 744.05 361.25 745.95 360.05 746.8 357.65 748.4 355.65 749.9 354.55 751.35 353.2 753.1 353.1 755.3 353.05 757.7 354.55 759.05 355.55 759.9 358.2 760.6 366.25 762.2 371.4 762.55 377.75 763.2 381.5 762.25 385.1 761.25 388.7 758.65 391.25 756.75 394.8 753.2 396.55 751.45 397.3 750.35 398.55 748.6 398.75 746.95 399.15 744.65 397.85 742.4 396.65 740.3 394.5 739 392.65 737.9 390.1 737.2 388.6 736.8 385.45 736.25 385.95 734.35 384.65 732.6 383.4 730.85 381.4 730.75
M 388.1 706.2
Q 387.3 706.15 385.55 706.25 379.55 707.95 374.7 711.2 372.65 712.6 371.8 714.05 370.95 715.4 370.95 718.35 370.95 721.5 371.7 723.3 372.75 725.8 375.25 726.7 376.75 727.05 377.75 727.05
L 383.7 727.35
Q 387.4 727.35 388.1 727.25 389.9 726.85 392.5 725.5 394.25 724.7 394.8 723.95 395.65 723 395.9 721.25 396.05 719.25 396.15 718.25 396.45 716.25 396.55 715.25 396.7 713.55 396.35 712.4 396 711.25 394.9 710.1 394.55 709.7 392.85 708.2 391.1 707 390.5 706.8 389.5 706.25 388.1 706.2
M 421.4 638.45
Q 419.8 636.9 419.65 636.7 418.15 634.3 417.25 633.2 415.75 631.4 411.55 629.55 401.45 625.65 390.95 626.25 388.85 626.5 387.75 626.8 386 627.25 384.9 628.15 383.9 629 383.15 630.5 382.75 631.3 382.05 633.3 380.55 637.5 381.3 639.9 381.95 642.6 385.8 645.5 388.3 647.45 393.35 651.2 397.5 654.65 399.55 658.05 400.6 659.75 402.4 663.4 404.15 666.5 406.25 667.65 410.65 669.9 417.7 666 421.85 663.65 423.1 661.15 424 659.05 423.6 655.55 423.05 650.5 423.1 649.7 423.5 646.45 423.65 644.85 423.85 642 422.85 640.25 422.4 639.45 421.4 638.45
M 534.5 435.55
Q 532.1 428.35 531.3 426.65 529.1 421.85 525.7 419.7 521.5 417.1 514.15 417.4 500.95 417.9 490.7 422.8 489.7 422.05 488.4 422 484.95 421.75 481.05 425.65 478.1 428.65 477 432.25 475.75 436.35 477.75 439.25 478.8 440.85 481.15 442.3 482.45 443.1 485.25 444.55 496.4 451.5 497.2 472.6 497.35 476.2 497.6 477.4 498 480.1 499.3 481.75 501.05 484.15 504.85 485.1 507.3 485.7 511.75 485.8
L 534.85 485.9
Q 541.2 486.1 543.25 483.35 544.4 485.1 545.75 486.35 548.75 489 551.55 487.8 554.55 485.45 554.35 480.7 554.15 476.95 552.1 472.4 550.3 468.3 542.85 454.15 536.95 442.9 534.5 435.55
M 283.4 755.3
Q 282.15 756.65 282.15 760.05 281.95 763.15 282.7 764.85 283.45 766.5 286.15 768.7 290.65 772.65 293.85 774.65 298.45 777.55 302.75 778.2 307.2 778.8 309 776.55 310.35 774.9 310.35 771.25
L 310.45 760.7
Q 310.65 756.5 309.25 754.4 308.2 752.8 305.05 751.55 299.4 749.2 293.3 749.6 292 746.35 288.9 745.3 287.8 745.4 287.05 746.3 286.3 747.2 286.35 748.35 286.4 748.8 286.8 750.15 287.15 751.2 287 751.9 286.85 752.85 285.55 753.75 283.7 754.95 283.4 755.3
M 171.75 567.8
Q 171.4 567 170.5 566.3 166.9 563.3 161.5 562.9 156.65 562.55 151.6 564.35 148.1 565.6 142.65 568.55 136.15 572.05 133.8 573.05 124.75 576.25 120.4 578.05 112.8 581.25 109.35 586 107.45 588.65 106.25 592.65 105.5 595.25 104.65 600
L 78.1 600.85
Q 73.35 601.05 71.4 602.5 69.95 603.6 69.15 605.85 68.7 607 68.1 609.9
L 66.15 621.85
Q 65.35 626.55 64.55 629.15 63.25 633.1 61.05 635.6 58.45 638.6 53.25 640.55 47.15 642.5 44.25 643.55 39.25 645.4 36.1 648.8 32.5 652.7 33.25 657.05 33.6 659 35.95 663 38.15 666.7 38.2 669.05 38.2 673.2 33.25 677.55 27.25 682.7 20.05 685 19.45 685.2 13.8 686.8 10 687.85 7.7 688.95 4.5 690.5 2.45 692.9 0.2 695.6 0 698.65 -0.15 701.45 1.95 705.85 4.4 711.05 4.75 713.05 5 714.4 5.1 717.1 5.35 719.5 6.3 720.85 7.1 722.05 9.2 723.2 12 724.7 12.55 725.15 16.3 728 17.25 737.55 18.2 747.35 21.6 750.25 25.2 753.4 32.45 752.75 37.95 752.3 44.45 750.4 48.85 749.1 56 746.3 86.4 734.3 105.3 726.15 107.9 725.1 109.2 724.2 111.2 722.9 112 721.1 112.9 719.4 112.75 716.65 112.45 713.5 112.45 711.95 112.5 706 118 699.35 125 692.05 127.95 688.2 127.85 689.25 128.25 690.1 127.6 690.7 126.9 691.4 123.35 694.85 122.25 696.25 117.5 702.1 118.3 710.2 119.1 718.35 124.85 723.2 127.55 725.3 131.45 727 133.9 728.05 138.6 729.55 146.9 732.2 150.15 733.15 156.65 735.1 161.85 736.25 172.5 738.5 182.6 739.15 185.15 736.7 186.4 735.15 188.35 732.85 189.2 730.55 189.8 729 190.2 726.55 190.85 722.6 190.85 722.5 191.5 719.9 191.85 718.6 192.4 716.3 192.4 714.7 192.5 712.55 191.65 710.7 190.75 708.75 189 707.9 187.15 707.1 186.55 706.7 185.3 705.8 185.7 704.8 190.2 704.05 195.35 702.85 193.05 701.55 191.35 699.75 193.75 699.9 195.4 700.2 196.8 700.45 203 702.35 207.55 703.7 210.55 703.7 214.3 703.7 218.75 701.8 219.85 701.3 226.3 697.9 238.7 691 252.5 686.7 266.15 682.45 280.3 681.05 281.65 686.35 281.75 689.85 281.9 694.8 279.85 698.2 278.75 700.2 276 702.85 272.6 706.15 271.7 707.25 269.7 709.7 269.45 712.85 269.25 716.3 271.5 718 272.6 718.9 274.35 719.2 275.4 719.35 277.55 719.35
L 311.75 719.65
Q 321.2 719.65 325.95 719.1 329.5 718.75 333.95 717.75 336.15 717.25 341.9 715.8 352.25 713 366.3 709.45 368.85 708.65 369.65 708.3 371.45 707.5 372.35 706.35 374.35 703.95 373.6 699.3 372.35 692.35 366.6 686.55 361.65 681.5 354.1 678.1 349.9 676.15 340.1 672.85 330.85 669.75 326.15 667.4
L 351.6 654.55
Q 354.5 653.05 356.1 652.05 358.5 650.5 360.05 648.8 361.85 646.8 362.6 644.4 363.4 641.75 362.6 639.45 361.65 636.95 358.8 634.95 357.65 634.1 353.45 631.9 345.6 627.8 339.6 620.75 338.2 619.1 337.35 618.05 337.45 617.3 337.3 616.5 337.1 615.4 335.1 612 333.5 609.3 334.2 607.55 347.25 614.9 362.15 616.35 365.95 604.4 365.7 591.6 365.5 578.8 361.35 567 360.05 563.5 359.5 561.75 358.55 558.7 358.4 556.3 358.3 552.35 360.15 546.4 362.95 537.4 367 528.5
L 401.75 534.1
Q 406.8 534.85 409.65 534.6 414.05 534.25 416.5 531.8 418.1 530.2 419.05 527.3 419.3 526.6 420.35 522.1 423.25 506.7 431.1 492.6 431.8 491.35 437.4 482.15 438.65 480.15 439.7 478.35 440.55 477.6 441.55 476.9 448.7 471.6 450.45 467.45 451.35 465.15 451.45 462.05 451.55 460.05 451.25 456.45 450.8 452.7 450.3 450.6 449.55 447.4 448.15 445.2 446.5 442.6 443.9 441.2 441.15 439.7 438.35 440.25 436.5 440.6 434.5 442.1 433.6 442.75 431.1 445 423.3 452.5 412.55 460.5 405.75 465.55 392.6 474.45 385.75 479 382.65 480.7 376.95 483.95 371.95 485.25 368 486.25 360.6 486.75 352.5 487.25 349.15 487.9 347.5 488.15 346.45 488.9 345.2 489.8 345.4 491.1 345.6 492.3 347.45 493.25
L 262.35 542.9
Q 254.95 547.25 251.15 549.15 244.75 552.35 239.25 553.9 238.1 554.25 237.15 554.7 234.1 554.1 232.55 553.9 224.45 552.95 217.4 556.65 209.8 560.6 208.6 567.75 208.45 568.55 208.3 573 208.2 576.2 207.35 578 205.75 581.4 200.2 584.35 197 586.2 194.65 586.95 191.5 588 188.8 587.55 183.7 586.85 179.7 581.15 179.65 581.05 173.7 570.4 172.7 568.7 171.75 567.8
M 195.05 493.6
Q 192.3 494.2 186.05 494.95 181.05 495.6 173.05 497.25 168.2 498.2 165.75 498.7 161.5 499.6 158.55 500.45 153.85 501.85 151.5 502.45 147.4 503.45 144.25 503.6 141.25 503.6 139.75 503.65 137.1 503.7 135.3 504.3 134.35 504.7 132.35 505.9 130.5 507.05 129.4 507.45 128.9 507.6 125.55 508.2 123.25 508.6 122 509.55 121.1 510.35 120.25 511.95 119 514.35 118.8 514.6 118.55 514.95 117.15 516.7 116.15 517.95 115.75 518.9 115.3 520.2 115.5 522.35 115.75 525.3 115.75 525.85 115.75 526.75 115.55 528.6 115.45 530.25 115.95 531.25 116.25 531.95 117.25 532.8 118.5 533.9 118.8 534.3 119.65 535.4 119.9 537.05 120.05 538.05 120.05 540.15 119.9 542.9 119.8 548.5 119.8 551.1 120.25 552.6 120.85 554.8 122.45 555.55 123.55 556.1 125.3 556.1 132.55 556.3 135.55 556.6 141.25 557.15 145.55 558.6 146.4 558.9 148 559.45 149.4 559.95 150.4 560.15 151.35 560.35 155 560.6 167 561.25 178.75 565.55 181.5 566.55 182.55 566.8 184.7 567.3 186.35 566.85 187.45 566.55 188.35 565.9 189.2 566.6 190.2 566.75 191.75 567.05 193.35 566.15 194.8 565.3 195.7 563.8 196.4 562.55 196.9 560.75 197.05 560.1 197.6 557.5 201.4 536 213.55 517.8 216.55 513.3 217.45 511.35 219.25 507.55 218.9 504.3 218.4 500.5 215.1 498.15 215.55 496.95 215.1 495.35 214.45 492.85 212.3 491.75 209.05 489.9 203.2 491.4 197.8 493.05 195.05 493.6
M 905.65 652.45
Q 905.35 649.9 902.85 647.85 900.85 646.25 897.75 645.2 893.7 644 892.3 643.35 889.4 642.05 887.95 640 887.6 639.55 886.65 637.9 885.9 636.6 885.2 635.95 884 635 882.3 634.9 880.7 634.8 879.05 635.4 877.9 635.8 876.2 636.75 873.9 638.05 873.3 638.35 870.55 639.55 869.25 640.2 867 641.35 865.95 642.9 864.6 645 864.6 649.35
L 864.4 664.55
Q 864.4 667.95 865.7 669.3 866.55 670.1 868.15 670.25 868.45 670.25 871 670.25 871.6 670.25 875.2 670.5 877.75 670.65 879.35 670.4 881.05 670 885.1 668.2 890.85 665.2 897.3 662.15 899.65 660.9 900.35 660.5 902 659.5 903.1 658.5 905.95 655.5 905.65 652.45
M 785.3 783.45
Q 785.15 785.35 786.3 788.4 787.6 791.95 787.75 793.35 787.8 794.05 787.9 795.5 788.1 796.7 788.7 797.3 789.6 798.2 791.9 798.2 798.75 798.3 812.25 798.65 814.45 798.65 815.45 798.3 816.3 798.05 818.2 796.45 820.1 794.7 820.5 794.25 821.75 792.95 822.4 791.7 823.15 790.3 823.3 788.75 823.4 787.05 822.7 785.75 822.15 784.85 820.8 783.7 819.25 782.35 818.75 781.8 818.05 781.05 816.75 778.75 815.6 776.7 814.55 775.85 813.05 774.6 810.6 774.4 808.9 774.2 806.1 774.55 801.05 775.1 798.5 775.45 795.55 775.75 794.3 776 792.05 776.4 790.35 777.2 788.35 778.15 787 779.75 785.55 781.5 785.3 783.45
M 736.15 722.4
Q 733.35 726.2 732.2 729.1 731.6 730.8 730.85 734.95 730.2 740.25 730.4 749.05
L 730.4 762.9
Q 730.4 764.7 730.55 765.55 730.75 766.95 731.5 767.85 732.45 768.95 734.25 769.4 735.4 769.7 737.45 769.8
L 748.35 770.15
Q 750.5 770.15 751.55 770.05 753.35 769.85 754.6 769.25 756.8 768.25 758.1 765.8 759.25 763.5 759.25 760.8 759.25 756.95 756.7 750.9 754.85 746.1 752.1 745.75 751.7 733.25 752.3 722.95 743.75 717.95 741.1 716.45 739.8 716.95 738.45 719
L 736.15 722.4
M 680.35 577.55
Q 678.15 577.85 673.65 577.85 658.6 578 628.35 578 625.35 578 623.85 577.85 621.4 577.6 619.65 576.75 618.5 576.3 615.05 574 605.3 567.6 594 566.75 589.95 566.4 587.75 567.75 586.4 568.7 585.95 570.4 585.6 571.65 586.05 572.65 582.1 574.4 576.7 577.05 566.8 581.95 560.7 583.35
L 556.4 584.4
Q 553.95 585.15 552.55 586.45 550.4 588.45 549.95 592 549.6 594.95 550.45 598.55 552.25 605.4 557.05 611.1 559.8 614.1 559.9 614.25 561.4 616.05 562.1 617.7 562.6 618.95 562.9 620.8 562.95 621.35 563.2 624.05 563.85 629.4 566.1 634.5 566.6 635.7 568.2 638.95 569.6 641.7 570.25 643.45 570.65 644.45 571.45 646.45 572.2 648.2 573.1 649.25 574.95 651.25 578.35 651.9 580.6 652.35 584.55 652.25 602.7 651.65 626.25 651.15 633.65 650.85 637.8 651.35 640.6 651.65 643.3 652.35 643.4 652.2 643.5 652.1 643.9 651.75 644.3 651.35 649.7 652.55 650.45 655.4 650.65 656.1 650.55 657.45 650 657.45 649.45 657.5 646.35 657.85 643.85 659.6 641.8 661.2 639.45 664.2 637.7 666.35 637.1 667.75 636.2 667 634.9 666.4 633.3 665.65 629.75 664.9 626.75 664.15 625.7 662.9 625.4 662.6 624.7 661.55 624.1 660.6 623.6 660.25 622.5 659.4 619.85 659.6
L 610.5 660.25
Q 607.2 660.5 605.3 661.15 602.5 662.05 601.4 664.1 600.6 665.5 600.65 667.2 600.7 668.8 601.5 670.25 602.5 672.5 605.7 675.2 611.2 679.95 618.35 682.8 621.25 684.05 622.3 684.7 624.35 686.05 624.8 687.85 624.9 688.25 625.05 690.05 625.15 691.4 625.6 692.15 626.3 693.65 629.45 694.15 631.95 694.55 634.05 693.95 636.55 693.25 637.7 691.4 638.8 689.6 638.8 685.9 638.8 685.75 638.8 685.65 639.3 686.2 639.95 686.85 641.5 688.4 642 689.4 642.2 689.75 642.65 690.85 643.05 691.75 643.4 692.15 644.5 693.35 646.7 693.9
L 653.85 695.9
Q 658.25 697.3 659.9 695.35 660.8 694.35 661 691.5
L 661.65 669.85
Q 661.65 667.2 661.65 667 661.55 665.5 661.2 664.35 669.6 664.65 683.55 665.1 684.7 666.75 686.3 669.5 682.35 673.8 683.35 676.75 683.95 678.45 685.85 679.4 687.45 680.15 689.6 680.3 690.95 680.35 693.55 680.3 695.8 680.35 697.2 680.95 703 683.4 702.8 694.9
L 702.8 714.8
Q 702.8 718 703.15 719.7 703.7 722.4 705.35 723.85 706.85 725.25 710.4 725.95 716.3 726.9 722.3 725.7 728.2 724.45 733.3 721.2 734.85 720.25 738.2 717.75 741.25 715.45 743.05 714.4 744.1 713.85 746.2 712.75 747.95 711.75 748.9 710.55 750.7 708.4 750.7 704.9 750.7 702.55 749.8 698.65 752.1 698.8 754.35 697.45 756.55 696.15 757.8 694.05 760 690.65 760.25 684.55 760.25 678.75 757.8 676.45 756.65 675.25 754.65 674.7 753.6 674.4 751 674
L 738.65 672.25
Q 736.05 671.85 735.05 671.6 733.05 671.1 731.75 670.15 730.15 669.15 729.5 667.35 728.75 665.5 729.55 663.9 730.35 662.25 732.85 661.05
L 739.35 657.2
Q 744.1 659.8 754.7 663.5 763.75 667.35 766.95 673.15 769.55 677.95 769.15 687.6 768.75 698.55 769.9 702.6 770.5 704.7 772.4 708.5 774.3 712.4 774.95 714.4 776 718 775.95 723.05 775.95 723.1 775.4 732 775 740.55 778.6 743.85 780.7 745.65 784.05 746.15 786.35 746.5 790.25 746.3
L 821.5 744.1
Q 823.95 737.2 823.35 729.65 822.75 722.2 819.3 715.7 817.2 712.35 816.15 710.65 814.4 707.65 813.7 705.25 813 703.15 812.8 700.35 812.7 699.05 812.7 695.35 812.7 679.2 812.8 671.05 812.8 665.8 812.55 663.2 812.2 658.9 810.95 655.65 810.85 655.45 810.8 655.25 811.05 654.9 811.25 654.55 812.95 651.8 813.55 647.9 813.9 645.35 813.9 640.7 813.9 629.15 814 623.4 814 620.3 813.8 618.8 813.5 616.25 812.5 614.4 810.8 611.15 806.5 609.2 803.5 607.85 798.4 606.9 798.4 605.8 797.8 604.25 797.05 602.6 796.75 601.75 796.4 600.5 796.15 598.4 795.8 595.85 795.65 595.05 795.2 592.5 793.8 589.65 792.95 588 790.9 584.7 788.45 580.85 786.6 579 783.75 576.15 780.6 575.8 778.45 575.6 775.6 576.55 772.35 577.85 770.7 578.4 766.55 579.75 758.7 579.75 755.15 579.85 752.9 579.7 749.7 579.55 747.25 578.85 740.7 576.95 738.35 571.95 738.15 571.5 738.05 571.15 738.8 568.2 737.15 566 735.15 563.5 730.9 563.1 729.4 562.95 723.4 563.25 722.35 563.25 716.15 562.95 711.75 562.7 708.95 563.25 703.65 564.2 694.65 570.35 685.6 576.55 680.35 577.55
M 860.45 413.95
Q 859.85 412.8 859.5 412.25 858.9 411.2 858.25 410.65 856.85 409.55 853.6 409.35 846.35 409 842.05 410.35 839.25 411.3 837.15 413.3 834.9 415.45 834.25 418.15 833.75 421.1 834.9 423.2 835.6 424.3 836.75 424.95 838 425.6 839.2 425.5 838.8 428 839.65 430.45 840.45 432.95 842.3 434.65 845.3 437.4 850.85 437.85 852.55 438 855.5 438.05 858.8 438.05 860.1 438.15 862.85 436.15 864.05 432.55 864.85 430.25 864.85 425.3 864.85 420.45 863.65 418.05 863.15 417.25 862.1 416 860.9 414.6 860.45 413.95
M 917.85 388.6
Q 916.7 387.9 915.9 387.8 912.3 387.4 910.25 393.6 908.2 399.6 907.3 403.3 906 408.65 906 413.2 906 416.35 907 422.9 908 429.25 907.95 432.55 907.9 433.95 907.8 436.8 907.85 439.3 908.6 440.9 909.55 442.85 912.2 444.7 913.65 445.75 916.65 447.75 918.7 449.4 923.75 456.2 926.6 460.1 929.4 461.95 929.25 462.35 929.15 462.75 928.75 464.25 928.75 466.9
L 928.75 479.1
Q 928.75 483.65 930.05 485.7 931.1 487.2 933.5 488.5 937.35 490.6 937.55 490.75 937.6 490.75 940.1 493 941.65 494.35 942.95 494.8 943.65 495.1 946.25 495.35 948.1 495.5 951.95 495.6 953.45 495.6 953.55 495.6 954.35 495.55 954.95 495.25 956.25 494.6 957.1 492.55 957.85 490.1 958.45 489 958.85 488.25 959.85 487.1 960.95 485.8 961.3 485.25 962.1 483.95 962.35 481.95 962.45 481.25 962.65 478.3 962.65 475.6 962.45 474.25 962.15 471.95 961.2 470.4 960.2 468.7 958 467.4 956.9 466.8 953.85 465.45 947.95 463.15 942.65 461 947.05 457.75 948.75 452.6 948.75 452.55 950 447.95 950.75 445.15 951.75 443.55 951.85 443.35 954.9 439.6 956.8 437.25 956.9 435.3 957.2 432.25 954.1 429.35 950.05 426.25 948.2 424.65 944.05 421 942.3 414.7 940.75 409.25 941.3 402.75 941.7 397.4 941.6 396.15 941.4 392.45 939.55 390.3 937.15 387.8 932.75 387.8 929.6 387.75 924.9 389.1 921.7 390.15 919.75 389.55 919.2 389.35 917.85 388.6
M 890.15 395.25
Q 887.15 394.1 883.1 394 880.55 393.95 875.85 394.4 871.2 394.85 870.35 397.15 869.95 398.3 870.5 400 870.85 401 871.65 402.95 872.2 404.75 871.95 407.5 871.55 411.8 871.55 412.1 871.55 414.65 872.7 416.65 874 418.85 876.15 418.9 876.5 420.55 876.4 422.7 876.35 423.35 876.05 426.4 875.85 431.4 877.95 433.45 879.1 434.9 882 435.55 885.75 436.2 889.2 434.65 892.8 433.05 894.3 429.8 895.2 428.05 895.5 425.6 895.65 424.1 895.65 421.1
L 895.65 405.15
Q 895.55 402.45 895.4 401.5 895.05 399.45 894.1 398.15 892.75 396.15 890.15 395.25
M 920.55 71.05
Q 920.2 72.75 919.95 73.4 919.45 74.95 917.85 77.05 915.95 79.6 915.45 80.55 914.3 82.65 913.75 85.5 913.45 87.35 913.25 90.8 913.15 93.9 913.2 95.3 913.35 97.8 914 99.6 914.15 100 915 101.85 915.65 103.2 915.75 104.1 915.75 104.2 915.95 105.95 916.05 107.05 916.45 107.6 917.25 108.85 919.75 109.05 924.65 109.5 929.9 107.35 934.6 105.4 938.75 101.7 942.6 98.15 944.25 94.3 945.1 92.1 944.95 89.8 944.8 87.35 943.6 85.5 943 84.5 941.25 82.75 939.6 81.1 939 80 938.35 78.9 937.95 77.05 937.65 75 937.35 73.95 936.7 71.15 935.1 68.9 933.3 66.5 930.85 65.5 928.25 64.4 925.4 65.3 922.45 66.25 921.25 68.7 920.9 69.5 920.55 71.05
M 1086.1 258.55
Q 1084.55 258.2 1081.85 258.1 1070.45 257.9 1047.9 257.2 1046.4 257.1 1045.75 256.95 1044.55 256.65 1043.9 256 1043.1 255.3 1042.9 253.9 1042.8 253.25 1042.8 251.4 1043.05 246.25 1042.8 240.95 1042.7 238.15 1042.4 236.55 1042 234.1 1040.95 232.45 1039.1 229.7 1035.5 228.4 1032.35 227.35 1028.5 227.5 1023.8 227.75 1021.15 229.85 1020.15 230.6 1019.15 232.05 1018.05 233.75 1017.5 234.55 1016.25 236.45 1015.65 237.4 1014.55 239.1 1014 240.5 1013.5 241.8 1013.1 244.05 1012.55 246.85 1012.35 247.65 1011.85 249.45 1009.5 254.2 1009.3 254.6 1009.1 255.05 1006.3 259.65 1003.75 264.5 1000.7 270.45 1000.45 274.05 1000.4 274.7 1000.5 277 1000.55 278.8 1000.35 279.9 1000 281.45 999 282.5 997.9 283.75 996.5 283.75 996.6 275.9 996.6 260.4 996.6 257.95 996.35 256.6 995.95 254.5 994.85 253.15 993.6 251.55 991.3 251.2 989.15 250.8 987.05 251.6 983.8 252.85 980.55 256.9 977.1 260.85 974.4 265.8 973.45 267.45 972.9 268.1 971.95 269.25 970.75 269.55 969.15 270 966.7 268.55 963.65 266.75 962.65 266.55 960.4 266.45 959.3 266.35 957.35 266.2 956.7 265.05 955.95 263.65 957.25 260.95
L 970.45 233.25
Q 972.75 228.4 973.65 225.75 975.1 221.4 975.05 217.75 974.9 211.75 971 208.15 968.95 206.35 966.2 205.9 963.35 205.4 961.1 206.6 963.55 198.55 959.2 190.3 954.85 182.1 946.8 179.55 942.95 178.35 939.15 178.75 935.1 179.1 931.95 181.2 930.05 182.45 928.15 184.65 927 185.95 925 188.7 919.55 195.8 913.7 202.65 906.8 210.65 899.65 217.75 898.5 218.3 897.05 219.5 883.75 229.7 877.15 234.9 873.55 237.7 871.55 239.55 868.6 242.25 866.8 245 864.7 248.4 863.3 254.6
L 861.6 267.35
Q 860.55 275.05 858.35 279.65 856.85 282.7 850.3 291.2 844.95 298.1 843.85 303.2 837.85 299.55 835.1 291.9 832.65 285.1 833.4 277.15 834.05 271.65 834.15 268.95 834.3 264.2 832.85 261.05 830.2 255.3 822.65 253.35 816.35 251.7 808.5 253.05 799.15 254.85 788.15 259.35 781.2 262.2 768.7 268.35 763.65 270.85 761.2 272.5 757.25 275.2 755.3 278.45 753.85 280.95 753.05 284.5 752.55 286.8 752.1 291 750.9 302.55 750.45 314.1 750.15 314.1 738.8 314.55 736.85 311.15 736.5 306.15 736.3 303.65 736.55 297 737 285.1 733.05 280.3 730.85 277.65 726 275.25 718.95 271.8 718 271.2 716 269.9 713.5 267.55 710.75 264.9 709.3 263.6 702.8 257.7 693.6 252.95 686.5 249.35 675.95 245.55 682.1 226.3 683.35 222.45 701.15 217.15 719.75 216.85 725.4 216.75 728.3 216.1 732.95 215 735.15 212 736.85 209.65 737.65 202.6 738.35 196.2 741 193.95 742.35 192.7 744.65 192.1 746.05 191.75 748.8 191.45 766.3 189.4 782.65 184.75 786.25 183.65 787.9 182.9 790.7 181.65 792.45 179.8 796.75 175.3 795.8 164.85 795.15 159.1 795 156.2 794.75 151.3 795.75 147.9 808.55 159.65 823.8 167.8 828.15 170.1 831.25 171.1 835.55 172.45 839.2 172.1 843.1 171.75 847.65 169.1 850.35 167.55 855.5 163.95 865.9 157.25 872.75 160.2 855.8 178.2 835.6 192.2 830.85 195.35 829.4 198.05 828.4 200 828.75 202.25 829.1 204.6 830.85 205.65 832.45 206.6 834.8 206.05 836.5 205.65 838.9 204.4 856.65 195.35 892.95 178.2 924.3 162.4 943.5 146.65 945.7 144.9 946.85 143.6 948.5 141.75 949.1 139.75 949.85 137.55 948.95 135.3 948.75 134.8 948.5 134.4 949.15 133.2 949.55 132.6 950.15 131.8 951.5 130.6 952.95 129.25 953.5 128.65 955.75 125.65 954.7 123.45 954.05 122.05 952.15 121.4 950.85 120.95 948.55 120.8 948.55 120.9 948.55 121.05 948 120.75 947.35 120.5 943.5 118.95 939 119.7 909.95 124.45 895.55 126.85 897.35 123 894.8 118.65 892.35 114.55 887.95 112.8 884.45 111.45 879.25 111.45 873.2 111.7 870.25 111.8 858.45 112.2 853.4 107.2 858.05 104.1 859.85 97.2 861.1 92.5 861.2 84.4 861.2 79.9 860.75 77.5 860.05 73.7 858 71.45 853.9 66.85 842.9 68.6 835.65 69.75 834.05 69.85 829.05 70.2 825.7 68.8 823.5 55.8 816.35 44.8 811.75 37.75 806.85 36.25 803.2 34.95 798.65 36.15 795.2 37.05 790.7 39.55 772.15 49.9 758.6 66.25 754.1 71.7 752.6 73.2 748.9 76.8 745.15 78.05 739.4 80.05 732.2 77.2 727.2 75.25 720.1 70.2 726.45 65 757.8 38.85 761.9 35.4 763.75 32.5 766.35 28.45 765.05 24.9 763.95 21.7 760.1 19.95 757.45 18.75 752.75 17.95 721.75 13.4 690.25 12.25 682.15 11.9 678.9 11.45 672.55 10.6 668.15 8.4 667.31171875 7.980859375 665.7 6.95 664.244921875 6.0806640625 662.15 4.7 658.45 2.25 656.05 1.35 650.15 -0.95 642.3 0.65 637.15 1.7 628.65 5.2 623.7 7.25 621.2 8.85 617.35 11.3 615.6 14.55 614.840625 16.0078125 614.3 18.05 613.985546875 19.3796875 613.75 20.95 613.45 23.15 612.85 27.65 611.2 35.95 604.35 41.9 597.5 47.85 589.05 48.35 585.25 48.55 579.8 47.65 573.6 46.45 570.55 46 559.45 44.2 553.55 48 551.2 49.55 548.3 52.7 545.1 56.4 543.5 58.1 537.75 64.15 532.55 63.05 530.35 62.6 527.7 60.6 524.85 58.2 523.3 57.15 515.9 51.7 504.35 53.1 496.3 54.05 484 58.9 480.15 60.4 478 61.75 474.9 63.7 473.55 66.35 472.05 69.35 473.75 72.75 475.5 76.2 478.65 75.7 480.45 78.7 478.45 82.4 476.6 85.9 473 87.4 470.3 88.5 465.9 88.95 458.85 89.65 458.5 89.7 447.2 91.6 439.85 101.7 436.41640625 106.4095703125 434.9 111.4 432.1517578125 111.9189453125 429.65 114.95 428.3396484375 116.51328125 427.6 118.15 427.298828125 118.004296875 426.95 117.85 420.15 114.95 416.2 113.95 410.05 112.35 405.05 113.25 401.3 114 397.2 116.35 394.75 117.75 390.1 121.05 380.8 127.85 376.4 131.8 369.3 138.25 365.55 145 361.75 153.1 359.55 156.85 355.75 163.45 350.7 165.25 350.65 161 348.4 157.25 346.15 153.5 342.45 151.5 338.75 149.45 334.35 149.6 329.95 149.75 326.4 152.05 324.3 153.4 321.65 156.25 317.65 160.55 317.25 160.95 313.6 164.45 307.05 168.2 299.65 172.15 296.05 174.4 288.75 178.95 280.45 187.15 280.45 187.2 266.4 202 258 210.85 251.75 215.6 243.3 222.05 234.55 224.65 227.85 226.6 226.9 226.95 222.75 228.6 220.9 231.35 219.8 233.2 219.3 236.2 219 237.9 218.5 241.25 216.7 249.2 208.25 257.45 195.9 269.3 174.1 279.05 151.75 287.95 139.45 293.3 137.35 293.3 135.1 294.3 129.3 297 125.05 301.2 120.4 305.8 118.4 311.35 116.3 317.3 117.75 323.5 119.25 329.95 124 333.65 126.35 335.5 133.35 338.45 139.55 341.1 142.15 343.9 145.25 347.3 146.15 353.05 146.75 356.9 146.45 363.6 146.1 372.4 145.35 390 145.1 394.15 145.3 396.65 145.55 400.3 146.75 402.95 148.4 406.5 152.15 409.35 154.85 411.4 159.5 413.65 183.4 425 210.9 423.5 238.4 421.95 260.95 408.05 267.1 404.2 270.85 400.35 275.55 395.4 277 389.9 282.95 385.1 291 388.9 299.05 392.65 299.1 400.35 299.15 403.25 298.1 409.45 297.6 414.8 300.2 417.25 301.4 418.45 303.35 419.05 304.7 419.45 307.05 419.7 312.3 420 323.15 419.3 332.5 419.35 337.5 423.3 340.1 425.35 343.4 430.4 347 435.85 348.95 437.75 353.75 442.3 362 443.4 364 443.65 366.45 443.75 368.05 442.55 369.95 441.8 375.6 439.75 382.85 441.55 382.65 441.2 382.5 440.85 382.05 439.85 381.75 438.9 397.8 439.7 411.75 435.65 419.75 433.4 438.3 424.85 454.95 417.2 465.1 415.2 473.55 413.5 489.55 413.5 506.5 413.5 514.05 412.3 519.4 411.5 520.55 411.4 524.2 411.15 526.9 412.1 529.75 413.15 532.3 415.8 534.1 417.6 536.4 421 551.4 443.85 556.85 469.85 558.05 475.45 558.45 476.75 559.55 480.55 561.35 483.05 563.3 485.7 566.3 487.5 563.5 489.25 560.6 492.5 555.75 497.75 555.75 501.85 555.75 505.15 557.85 507.35 559.8 509.5 563.4 510.25 565.6 510.75 570.05 510.9
L 595.25 511
Q 597.75 509.25 597.75 503.5
L 598.1 492.05
Q 600.4 492.45 602.25 493.05 606.7 498.25 609.1 510.95 611.65 524.4 615.15 529.45 615.4 529.85 620.45 535.85 623.65 539.7 624.4 542.9 624.5 543.35 624.9 547.5 625.15 550.35 626.15 551.9 627.6 554.3 631 555.15 633.3 555.75 637.25 555.75 650.9 555.85 678.4 555.85 681.55 555.85 683.1 555.65 685.8 555.3 687.5 554.2 689.7 552.9 691.5 550 692.55 548.3 694.35 544.75 697.05 539.45 701.25 535.05 701.7 534.6 702.15 534.15 700.2 532.5 698.5 530.45 697.05 528.65 695.95 526.75 698.7 517.55 704 509 709.3 508 714.55 509 719.95 510 724.25 512.85 724.8 516.75 728.25 519.75 731.25 522.4 735.6 523.65 738.2 524.45 743.65 525.35 749.05 526.2 751.65 527.05 760.15 529.8 766.8 537.9 772.4 544.6 776.4 554.65 777.85 558.7 779.15 560.7 780 562.2 781.95 564.55 784.1 567.2 784.85 568.3 786.25 570.35 786.5 570.75 787.55 572.05 788.6 572.7 790.3 573.7 793.65 573.7 795.55 573.7 796.45 573.6 798 573.45 799.15 572.9 801.65 571.7 803.7 568.1 807.8 561.35 810.3 553.8 810.95 551.7 811.85 547.95 812.9 543.75 813.35 542.1 815.65 541.15 818.9 541.55 819.5 541.65 821.15 542 821.25 542.8 821.6 543.55 822.3 545.15 824.1 547 825.1 548.05 827.1 550.15 830.8 554.6 831.2 560.7 831.2 563.95 831.35 564.85 831.7 567.2 833.05 568.2 834 568.85 836.3 569.15 838.7 569.45 839.65 570.05 842.4 571.6 842.2 577.55
L 841.5 606.9
Q 841.5 610.6 841.9 612.6 842.55 615.65 844.4 617.25 845.65 618.35 847.6 619 848.75 619.35 851.3 619.8 854.95 620.35 856.8 620.45 859.9 620.65 862.3 620.2 865.15 619.75 867.45 618.35 869.9 616.8 871.1 614.4 878.95 619 885.2 619.1 889.05 619.3 892.5 617.7 896.1 616 897.95 612.85 899.85 609.65 900.05 603.6 900.05 597.95 898.15 595.05 896.55 592.4 892.95 590.7 890.65 589.65 886.2 588.55
L 886.3 579.85
Q 890.65 580.95 892.95 581.35 896.7 582 899.7 581.85 903.3 581.65 906.3 580.3 909.65 578.8 911.6 576.2 913.1 574.15 913.85 571.1 914.4 568.85 914.65 565.35 915.3 558.15 914.95 553.4 914.45 546.85 912.15 542 909.5 536.4 904.25 533.15 898.65 529.75 893 531 892.35 528.75 892 525.05 891.55 520.15 891.35 519 890.1 511.55 885.75 508.7 883.05 506.95 878.9 507.05 876.7 507.1 871.45 508 869.45 508.25 868.55 508.25 867 508.2 865.95 507.45 864.85 506.7 863.75 504.3 860.05 495.55 859.65 486.15 859.6 485.45 859.65 477.15 859.65 471.65 858.9 468.1 856.9 459.25 848.9 452.2 842.1 446.2 832.05 442.25 828.15 440.8 826.65 439.95 823.8 438.3 822.7 435.95 821.35 433.15 822.4 428.25 823.85 420.15 828.2 413.3 829.8 410.8 830.25 409.75 831.2 407.7 830.95 405.95 830.650390625 403.5533203125 828.55 402.2 828.61953125 402.135546875 828.65 402.05 829.0318359375 401.1271484375 828.95 399.95
L 829 399.95
Q 833.85 398.85 836.7 399.35 838.65 399.7 841.4 400.9 845.35 402.65 845.9 402.85 848.45 403.75 850.85 403.5 853.6 403.15 855.05 401.3 856 400.05 856.3 398.2 856.5 397.05 856.5 394.7 856.35 385.6 856.25 381.1 856.25 377.4 856.5 375.55 856.9 372.45 858.15 370.3 861.05 365.6 870.05 363.95 872.5 363.55 877.5 362.7 881.75 361.8 884.4 360.3 886.15 365.3 890.8 368.6 895.45 371.85 900.8 371.85 905.9 371.85 911.4 368.8 915.4 366.6 920.6 362.05 923.95 358.95 926.35 359.95 927.45 360.4 928.2 361.8 928.6 362.6 929.2 364.45 931.85 372.9 939.25 378.65 946.7 384.45 955.6 384.95 956.6 385.05 958.55 385.25 960.15 385.5 961.1 386.35 963.35 388.15 962.2 391.9 961.5 394.05 959 398.15 955.5 403.9 955.05 410.1 954.6 415.55 956.9 418.7 958.35 420.55 961.5 422.1 966.15 424.4 966.7 424.75 969.35 426.5 971.05 429.25 972.75 432.05 973.1 435.2 973.25 436.7 973.3 439.65 973.5 442.25 974.5 443.65 976.4 446.45 981.95 446.4 989.7 446.3 991.25 446.75 989.9 455 990.7 460.45 991.8 467.9 996.85 471.15 1001.1 474 1008.15 473.35 1014.45 473 1019.25 470.15 1024.7 466.85 1025.55 461.6 1025.85 459.8 1025.2 453.45 1024.7 448.5 1026.3 446 1027.55 444.15 1030.2 442.85 1031.7 442.1 1034.9 440.8 1039.85 438.5 1043.45 434.3 1047.05 430.05 1048.45 424.85 1049.95 415.65 1050.85 411.2 1052.5 403.35 1057.25 400.65 1058.75 405.55 1064.9 406.3 1070.85 407.05 1074.95 403.3 1081.4 397.1 1080.75 383.4 1080.3 376.25 1080.15 372.65 1080 366.45 1081.2 362.15 1082.7 357.75 1083.25 355.55 1084.2 351.7 1083.1 349.05 1081.4 344.9 1075.95 343.95 1071.45 343.2 1065.9 344.65 1061.6 345.85 1057.6 347.3 1055.7 343.75 1050.5 341.05 1048.65 340.15 1045.85 339.25 1042.65 338.25 1041.05 337.75 1038.05 336.8 1037.85 335 1040.4 333.65 1042 329.85 1043.6 325.3 1044.6 323.2 1045.7 320.95 1047.8 318.45 1049.1 317 1051.85 314.2 1055.1 310.95 1057.55 310.15 1059.95 309.45 1063.05 310.25 1064.45 310.6 1068.45 312.2 1079.75 316.5 1091.35 315.65 1094.35 315.35 1095.4 314.75 1098.6 312.7 1098.6 307.05 1098.45 302.4 1095.7 294.75 1092.5 285.95 1091.9 282.4 1091.4 279.35 1091.5 274.85 1091.65 269.8 1091.65 267.25 1091.55 264.9 1091.25 263.65 1090.8 261.7 1089.7 260.5 1088.45 259.15 1086.1 258.55 Z" />
        </g>
    </defs>

    <g transform="matrix( 1, 0, 0, 1, 0,0) ">
        <use xlink:href="#Layer0_0_FILL" />
    </g>
</svg>