<svg xmlns="http://www.w3.org/2000/svg" version="1.1" xmlns:xlink="http://www.w3.org/1999/xlink"
    preserveAspectRatio="none" viewBox="0 0 612 444">
    <defs>
        <g id="Layer0_0_FILL">
            <path fill="white" stroke="none"
                d="
M 426.1 412
L 426.65 406 425 404.2 412.9 406 413.45 409.9 412.9 413.2 414.3 414.7 414.3 416.2 415.45 415.9 415.45 413.2 416.55 413.2 417.4 414.4 419.35 414.1 421.05 415.65 424.4 413.8 426.1 412
M 421.35 435.2
L 419.95 434.9 419.65 435.8 418.5 436.1 418.5 437 421.05 436.7 421.35 435.2
M 441.5 418.65
L 437.6 416.55 436.75 414.4 435.9 414.15 435.65 414.75 433.65 415.05 433.4 417.75 426.65 419.25 422.15 424.05 421.35 427.35 420.2 427.95 419.35 429.8 419.35 431 420.5 432.2 423.85 431.3 421.35 434 421.35 435.2 425.25 435.5 427.5 436.7 427.5 437.6 424.95 440.9 425.25 441.8 426.1 441.8 428.35 440.9 431.15 438.2 431.15 435.8 433.65 433.65 434.5 431.85 435.65 432.15 435.9 434 438.45 433.7 440.7 434.6 444.3 434 444.3 430.65 441.8 426.75 442.9 422.25 442.35 422.25 441.5 418.65
M 460.3 403.9
L 459.2 405.1 458.05 404.2 456.4 404.5 455.55 407.8 454.15 407.2 452.75 408.1 453.3 412.65 454.4 413.85 458.05 414.45 459.2 413.55 459.75 410.85 459.2 409.3 461.15 405.4 460.3 403.9
M 472.65 414.1
L 473.5 414.1 476.55 409 476.85 405.1 475.15 405.7 474.6 409.65 473.5 410.55 473.5 411.4 471.8 412.3 472.65 414.1
M 68.1 421.95
L 67.25 422.85 63.9 423.45 63.6 424.05 64.45 424.95 65.85 424.95 66.15 423.75 68.1 424.35 68.65 422.25 68.1 421.95
M 71.45 422.85
L 72.3 422.55 71.75 419.55 70.05 420.75 70.35 422.25 71.45 422.85
M 88.55 443.9
L 89.7 443.9 90.8 442.4 90.5 439.7 89.7 439.7 88 441.8 88.55 443.9
M 82.95 427.35
L 81.55 426.45 79 426.75 78.45 424.65 77.1 424.65 75.4 425.85 74.85 429.15 75.95 429.8 75.95 431.3 74.3 432.8 73.45 432.15 72.9 434 71.75 434 71.2 432.5 69.25 432.5 65.85 434.3 65.05 437.6 66.45 438.2 66.45 439.1 68.4 439.7 68.95 440.9 72.05 440 72.6 438.5 74.3 438.8 76.25 437.9 76.8 438.8 78.2 438.8 78.75 437 80.7 436.7 82.1 437.6 82.7 437 81.55 435.8 81.3 433.4 79.6 433.1 79.3 430.1 82.65 429.5 82.95 427.35
M 89.4 414.75
L 89.95 416.85 91.35 418.05 92.5 418.05 92.75 416.85 91.1 415.95 90.25 414.45 89.4 414.75
M 84.35 412.95
L 83.25 412.95 81.55 410.55 80.15 410.55 79.9 411.4 77.65 410.8 76.5 408.1 73.4 406.9 73.4 406.3 72.3 406.65 71.75 409.35 71.75 411.15 72.6 412.35 71.45 413.85 71.45 416 74 416.6 74 415.4 75.4 415.1 75.4 413.25 78.75 412.65 79.6 414.15 79.05 415.05 79.35 416.55 80.75 416.55 81.3 415.35 81.85 417.8 83.25 418.05 83.8 416.55 82.95 414.75 83.8 414.45 85.75 415.95 86.05 417.15 87.2 417.15 87.75 414.75 86.05 412.35 85.2 412.05 84.35 412.95
M 304.4 367.45
L 304.4 365.05 304.7 364.45 303.3 364.45 301.9 365.35 300.8 367.75 302.75 368.35 304.4 367.45
M 283.1 300.9
L 282 300.3 280.6 300.3 280.6 301.2 279.2 301.5 279.5 303.65 283.4 302.4 283.1 300.9
M 202.35 368.7
L 202.35 367.2 200.4 368.1 199.55 369.6 199 369 195.1 369 194.8 369.9 192.85 371.1 192 373.2 193.4 373.8 193.7 375.3 192.55 375.6 192.3 377.7 191.45 378.3 189.5 378 189.5 378.9 190.3 381 193.7 381.6 195.35 385.2 193.15 387.05 190.6 387.05 189.2 390.95 188.35 391.55 185.55 391.55 184.7 391.9 184.7 393.1 185.55 393.7 185.85 396.1 188.65 395.8 188.95 397.3 190.9 397.3 191.15 396.7 192.3 397 192.3 395.2 193.95 395.2 195.35 394.3 195.35 393.1 197.9 391 199.6 391 200.15 390.1 201 390.1 202.4 392.8 203.5 393.4 203.8 391.3 206.6 390.05 206.6 388.25 208 387.05 206.3 385.85 205.75 384.35 204.05 384.35 202.95 385.85 201.25 385.55 198.7 383.75 197.05 380.75 196.75 378 198.45 376.5 200.4 376.5 203.8 375 203.5 373.5 200.15 373.5 202.95 371.7 203.75 370.2 203.75 369.3 202.35 368.7
M 209.4 329.8
L 207.45 330.4 200.7 329.5 197.35 330.1 197.35 329.25 195.1 329.5 195.35 331.6 193.7 331.6 195.1 334.6 200.4 334.9 201.25 336.7 202.1 337 202.1 338.55 205.75 339.4 205.75 342.15 207.45 344.25 208 346.65 211.05 348.75 212.75 348.15 214.15 346.65 214.7 343.35 213.3 340.35 211.65 338.85 213.05 332.8 211.65 330.7 209.4 329.8
M 214.15 329.25
L 215.25 330.75 218.35 331.65 223.15 328 223.95 324.7 222.3 322.9 217.25 323.5 216.4 325.3 215 325.6 214.15 329.25
M 241.65 301.8
L 242.75 304.2 246.95 304.2 246.95 299.1 245.55 300 243.6 300 241.65 301.8
M 226.75 295.5
L 223.95 296.7 225.35 297.6 225.65 298.8 227.9 298.2 227.9 297 226.75 295.5
M 212.45 295.8
L 211.65 293.05 211.65 293.1 202.4 296.1 203.25 298.2 202.95 300 204.9 302.1 204.65 303.9 205.45 305.4 207.15 306.3 207.45 307.85 210.25 306.3 212.45 306.3 215 302.4 213.85 299.1 209.95 299.1 209.1 300.9 208 300 208.55 298.2 212.45 295.8
M 221.75 231
L 222.3 232.5 224.55 234 224.55 235.5 225.95 236.4 226.75 238.85 233.8 235.5 233.8 234.3 232.1 231.6 230.4 231.9 229.55 230.4 230.15 228.9 231.25 228.3 231.25 225.55 232.65 225.55 232.95 224.35 231.55 224.05 228.75 225.3 228.15 223.45 225.95 223.45 224.25 224.35 223.4 226.45 225.1 227.05 224.8 230.1 224.55 230.7 221.75 231
M 216.7 234.65
L 215.3 234.95 212.25 233.75 211.7 234.35 211.95 237.35 210.85 237.95 211.7 239.8 211.4 240.7 209.7 240.4 209.45 238.85 207.75 239.45 207.2 241.6 206.05 242.8 204.65 243.1 202.7 244.9 201 245.2 197.1 248.2 194.55 251.5 194.55 252.4 191.75 255.45 187.85 256.95 187.85 255.4 189.8 253.9 189.8 251.8 191.75 250.3 192.05 248.8 192.05 246.7 190.65 245.45 189.5 245.45 190.9 249.7 187.55 250.9 187.55 249.4 186.7 249.1 184.75 252.7 181.65 252.7 180.25 254.2 178.3 254.8 178.55 257.8 175.75 258.1 174.9 259.3 169.05 261.75 168.45 262.65 167.35 261.75 165.95 262.05 164.25 265.95 161.75 269.1 203.8 269.55 204.1 265.7 203.25 264.8 202.7 261.2 202.15 261.2 202.4 260 201.55 257.6 203.8 257.3 204.1 257.9 205.8 257.9 207.2 259.4 207.75 262.4 210.25 265.1 210.55 266.65 212.5 267.55 213.9 266.9 214.2 264.8 218.4 265.1 221.2 261.5 223.45 262.4 223.15 261.2 221.2 259.7 222.6 257.6 222.9 254.85 223.7 254.85 224.55 253.35 224.55 252.45 222.9 251.25 222.3 247.95 225.7 246.4 222.9 241.9 222.6 239.5 218.95 235.85 216.7 234.65
M 268.55 215.35
L 268.55 215.3 266.85 215.3 266.05 216.2 262.65 216.2 259.6 218.3 257.9 218 257.35 215.9 255.35 215.6 254.5 217.7 252 218 247.5 220.75 247.25 221.95 248.65 223.45 249.75 226.75 248.9 228.3 248.9 230.4 249.75 232.8 252 232.8 252 235.5 253.1 237.3 257.3 237.9 258.7 238.8 257.05 239.1 257.05 243.05 258.15 242.75 258.15 243.35 257.3 243.35 257.05 244.55 257.6 244.85 258.45 243.95 259 245.45 257.6 247.25 256.45 251.8 260.1 256.9 263.45 256.6 263.2 253.6 264.05 252.7 266.3 252.7 267.1 254.8 269.1 255.7 270.2 255.7 271.05 254.5 273 254.5 275.25 257.5 276.95 257.5 277.75 254.2 279.75 253 280.55 249.7 281.7 249.4 281.15 247.25 282.85 244.55 281.45 241.85 282 239.45 280 237.95 279.75 236.75 280.85 231.9 279.45 231.3 278.05 229.2 278.35 227.4 276.4 224.4 276.65 218.35 272.75 215.95 268.55 215.35
M 156.7 390.95
L 154.15 390.65 149.95 394.85 149.1 399.95 149.95 401.45 151.9 401.75 152.5 403 154.45 403 155 404.5 157.55 406.6 158.1 405.1 161.45 403.9 161.75 398.15 160.05 397.85 159.8 398.75 158.65 398.75 158.65 396.95 159.8 396.35 158.95 394.85 159.2 393.65 156.7 390.95
M 0.55 373.8
L 0.25 375.3 1.65 375.9 1.65 377.4 2.5 377.7 3.9 376.8 4.45 374.7 3.6 373.8 2.5 374.4 2.2 373.8 0.55 373.8
M 52.4 233.7
L 54.35 234.3 55.75 239.15 56.6 239.15 57.15 238.55 56.85 236.4 58 235.2 57.45 233.4 56.6 233.7 56.6 234.6 55.75 234.6 54.35 233.1 52.95 232.5 52.4 233.7
M 54.9 228.3
L 54.05 226.5 52.4 227.1 52.4 229.8 54.9 228.3
M 133.15 249.4
L 132.85 247.55 131.7 248.5 131.45 253 134.25 253.6 135.65 252.1 135.9 250.3 133.15 249.4
M 82.4 292.8
L 82.1 291.9 80.7 292.2 79.9 293.4 77.35 294 77.35 295.2 75.4 295.2 74.55 293.4 73.7 293.7 73.15 292.8 70.05 292.5 70.05 293.7 68.65 294.6 68.4 296.1 66.15 296.1 65.85 294 63.35 294.6 62.75 293.7 62.5 296.1 60.8 296.4 60.8 297.6 60.25 297.6 60.8 299.45 59.95 302.15 60.25 303.95 58.3 306.05 52.1 308.75 51.85 312.35 52.95 314.5 53.8 314.8 53.8 318.1 51.85 319 51.85 317.45 50.7 317.15 50.45 315.4 48.2 314.5 46.5 316.9 43.7 317.2 41.75 318.7 37.55 318.4 35.55 319.6 35 322.9 34.45 322.9 33.05 325.95 31.65 326.85 30.55 329.25 28.85 329.25 27.7 326.85 25.2 326.55 23.25 327.75 21 328.05 20.4 330.15 17.65 331.95 17.65 333.75 18.75 336.15 21.6 336.15 22.15 335.3 23.25 335.3 23.55 334.05 26.6 334.65 26.05 336.15 28.6 336.8 28.85 341 25.5 343.7 21.3 343.7 19.35 345.2 17.65 345.5 16.55 348.8 17.95 349.7 17.95 353.05 18.75 355.75 16.55 359.65 15.4 359.35 15.4 358.45 11.5 354.55 7.55 355.45 6.45 361.15 4.75 362.95 4.75 364.75 5.6 364.45 5.85 365.05 5.3 365.95 5.3 372.6 9.25 375.9 8.95 379.5 7.85 379.5 7 381.6 7.55 382.85 7.25 384.95 9.8 386.15 10.1 387.35 11.75 387.95 12.05 388.85 12.6 387.95 14.25 387.95 15.1 388.85 14.85 391.25 12.6 391.25 12.6 395.15 10.05 396.65 11.75 399.4 12.85 399.1 12.6 397.6 13.7 396.4 15.65 396.4 18.45 397.6 19 396.1 20.15 396.1 20.15 394.85 18.45 393.95 18.45 392.75 19.6 391.55 22.95 390.95 23.25 390.05 25.75 390.35 26.6 389.15 28.3 388.85 30.25 389.15 29.95 391.55 32.2 390.95 32.75 391.55 33.9 390.35 33.9 389.15 34.75 388.85 34.75 387.35 36.15 386.75 38.35 382.85 39.2 382.85 41.15 381 43.15 381 43.95 382.25 45.65 381.6 44.55 377.7 46.8 376.5 47.65 373.8 51.55 370.5 54.35 370.2 54.35 371.7 55.75 372.3 58 370.8 58 368.1 59.7 368.4 60.25 370.2 60.5 369.6 64.45 369.6 64.75 371.1 63.9 371.4 63.05 373.5 64.15 374.7 64.75 377.7 65.3 378.3 67.55 378.3 68.35 379.85 69.2 379.85 69.75 382.25 71.15 381.65 73.95 384.65 76.75 385.55 77.9 386.75 78.75 385.85 79.85 385.85 80.7 381 81.55 380.7 84.05 381 84.9 383.45 86.3 383.45 86.6 384.95 87.45 385.55 91.65 384.3 91.65 383.7 93.05 383.1 94.15 383.4 95.85 382.5 98.9 382.8 99.2 382.2 97.25 381 97.8 374.95 97.25 374.35 92.75 372.85 92.75 372.25 90.5 373.75 90.5 374.65 85.2 373.15 85.2 370.75 88 369.85 88.55 367.15 89.4 366.85 89.65 365.65 92.2 365.05 93.3 367.15 95 367.75 99.8 365.95 100.9 365.05 101.45 363.25 102.85 362.35 105.65 362.65 106.8 361.15 107.9 361.15 108.45 359.65 118.3 356.3 119.1 356.3 119.1 356.9 121.9 356.3 123.6 356.9 123.3 358.75 124.45 359.65 124.45 359.05 125.55 359.05 126.7 357.8 128.65 358.1 129.5 357.2 128.95 356.9 129.25 355.4 131.75 353.6 132.9 353.9 135.95 352.7 136.5 351.2 138.75 350.6 140.15 349.4 142.95 349.7 144.1 350.9 145.5 350.6 148.6 353 147.75 355.7 145.8 357.2 145.5 360.25 144.35 361.45 144.9 362.95 146.9 363.25 151.1 368.05 149.1 372.3 147.45 373.5 147.45 374.7 150.8 377.1 153.35 376.8 153.9 377.7 153.6 380.4 154.7 379.8 156.7 380.4 157.25 377.7 158.35 376.8 160.05 377.1 161.15 376.5 161.7 375 164.25 373.5 165.95 373.5 165.95 374.1 167.35 374.7 167.35 376.2 168.15 377.1 171.25 377.1 172.95 372.9 177.45 371.65 176.85 369.85 178.85 367.45 181.9 366.85 184.7 365.05 184.45 364.45 185.25 364.45 185.55 363.55 184.7 361.75 186.95 360.85 186.95 360.25 185.55 359.95 185 358.75 183.6 359.95 182.75 358.4 179.4 358.15 178.25 357.25 177.4 355.45 176.3 355.15 174.6 357.55 171.8 357.25 170.7 356.65 169.55 353.35 167.6 351.2 166.5 351.2 165.9 349.1 163.4 350.3 162.85 349.4 160.9 348.8 160.9 347 166.75 344.3 168.15 341 172.35 340.4 174.6 339.5 174.9 338.6 176.85 337.35 179.1 337.05 179.1 334.95 178.25 333.75 177.15 333.75 174.6 328.05 173.2 327.15 172.65 325.65 169.55 324.75 169.85 322.35 166.45 320.5 165.9 318.1 168.15 315.1 170.4 315.1 172.9 316.6 173.75 318.4 176.85 318.7 177.7 321.45 179.95 321.45 181.05 322.35 184.15 322.95 186.65 321.1 188.9 321.7 188.65 319.9 189.75 318.4 188.9 317.8 188.9 316.3 190.05 314.8 190.05 313.3 188.05 311.5 188.9 310.9 188.65 309.05 190.6 308.45 189.2 305.75 190.05 305.15 190.3 302.45 189.75 301.55 187.8 301.55 186.95 300.35 186.1 296.4 188.35 294.6 187.5 294.6 186.4 292.5 186.95 291.6 188.1 291.6 190.35 294 193.95 293.4 194.25 294.3 195.1 294.3 195.1 292.8 192.85 289.8 191.75 285.85 190.65 286.15 189.8 288 188.65 286.8 187.55 287.1 186.7 289.2 185.3 287.7 183.35 288.6 181.95 287.7 182.5 285.25 185 284.95 187.25 283.75 186.4 281.35 183.05 281.35 183.9 278.95 183.05 276.85 184.75 276.55 185.85 273.5 192 274.15 195.65 271.7 195.95 270.8 199.05 272 200.45 274.75 202.15 274.75 204.65 273.2 203.8 272 203.8 269.6 161.75 269.15 159.5 271.4 154.2 272.3 149.4 274.7 146.9 276.8 146.9 277.7 144.35 280.45 137.35 284.35 130.65 286.45 125.85 287.05 121.65 289.75 114.1 290.65 113.25 292.2 110.45 292.2 109.6 290.65 107.9 290.65 107.05 292.2 105.1 292.2 100.65 300.3 101.2 300.6 100.9 301.5 99.25 303.6 100.05 305.75 98.1 305.15 97 306.05 95.6 306.05 94.75 304.2 93.9 303.9 94.2 302.7 93.35 302.7 92.5 300.9 91.35 300.3 91.35 297.3 90.55 295.5 88.55 294 85.75 294.3 85.5 293.4 82.4 292.8
M 112.65 259.35
L 111.8 259.35 111.55 260.25 110.15 259.65 109.6 261.15 107.9 260.55 107.6 261.15 105.95 260.85 102 261.75 102 260.25 104.55 259.35 99.5 258.45 86.3 262.95 85.75 263.85 80.7 265.05 62.75 271.65 59.1 272.25 58.25 274.65 55.75 275.3 56 276.5 59.4 275.9 62.2 277.1 62.2 279.5 64.7 282.8 64.15 284.3 61.65 286.15 59.65 289.75 57.7 290.35 57.15 291.85 60.5 290.95 61.1 292.15 65.3 292.15 68.1 290.95 73.15 290.65 75.35 289.75 80.4 290.05 80.4 290.65 80.7 290.05 82.4 290.05 93.05 294 98.1 294.3 98.9 295.8 99.75 295.8 105.1 290.95 103.4 286.75 103.15 282.55 104.25 283.15 106.5 280.7 105.35 278.6 105.95 274.7 106.75 273.8 106.75 272.3 107.9 271.65 111 266.85 110.7 265.65 111.55 265.35 112.65 262.95 112.65 259.35
M 149.4 240.05
L 148.85 243.35 147.7 243.95 147.45 247.85 149.4 245.75 149.65 243.35 150.5 242.45 149.4 240.05
M 45.95 195.75
L 43.15 195.75 43.15 198.45 44.8 198.75 47.9 200.85 48.2 203.85 47.05 204.15 46.2 208.4 47.05 209.3 48.75 209.3 49.85 208.1 50.7 205.4 49.85 202.95 50.15 200.85 51.55 199.65 51.55 198.45 50.45 197.25 47.35 197.25 45.95 195.75
M 516.1 332.85
L 515.5 332.85 515.8 335.25 518.05 335.85 518.05 334.65 516.95 334.35 516.1 332.85
M 521.1 331.05
L 518.3 330.75 518.3 334.65 519.15 335.55 520.55 334.95 522.8 335.25 523.65 334.35 523.95 330.4 523.35 330.15 522.8 326.5 521.7 327.1 521.1 331.05
M 521.4 315.35
L 519.15 316.6 518.9 318.4 516.65 319.9 516.1 324.4 515.25 325.3 518.05 325.3 520 323.8 520 321.1 521.95 318.05 521.4 315.35
M 541.55 322.9
L 540.2 321.1 539.35 321.4 539.35 322.3 540.75 324.1 541.6 324.1 541.55 322.9
M 531.25 267.8
L 532.9 271.7 535.15 272.6 535.7 273.5 534.85 276.8 538.5 278 539.05 276.5 538.5 274.4 541.3 273.8 542.45 271.7 540.75 271.4 539.65 270.15 540.2 267.45 539.05 264.75 536.85 263.25 537.1 260.55 536.25 260.55 534.05 262.95 531.8 263.25 531.25 267.8
M 539.65 255.4
L 537.15 256 536.85 257.55 540.5 257.25 539.65 255.4
M 520.55 257.8
L 518.9 259.65 517.75 262.05 518.05 264.15 516.35 265.95 516.35 268.95 517.5 270.8 518.9 270.8 519.15 267.15 519.7 268.05 521.95 268.05 522.25 266.85 523.95 266.55 524.2 262.05 527.6 257.8 527.3 256.6 525.35 256.6 523.65 259.05 522.55 257.8 520.55 257.8
M 502.9 246.4
L 502.35 246.4 503.2 248.5 505.15 248.5 506.55 247.6 504.6 243.95 503.45 244.25 502.9 246.4
M 498.7 208.7
L 499.8 208.7 500.1 207.2 499.55 204.8 497.85 204.5 495.6 202.4 493.4 202.4 493.1 201.45 491.95 201.45 491.95 202.4 490.85 202.1 491.4 203.9 490.85 203.9 491.1 205.4 490.55 206 492.8 207.2 493.1 208.4 494.5 206.6 494.5 204.5 496.45 205.7 495.9 206 495.9 209.9 496.75 210.2 497.3 214.15 499 212.95 498.7 208.7
M 541.05 246.7
L 540.5 246.7 540.2 247.9 541.05 248.2 540.75 250.3 542.15 253.9 545.25 255.1 548.6 255.1 549.2 253.6 546.65 252.7 542.75 248.5 541.6 248.5 541.05 246.65 541.05 246.7
M 536 242.15
L 535.7 243.95 534.6 243.65 534 242.45 531.5 243.35 530.95 248.8 531.8 249.4 530.65 252.1 533.75 252.1 536.8 253.9 536.8 252.7 537.95 252.4 537.95 251.5 536.8 250 536.8 248.2 537.95 247.6 539.05 245.15 539.05 243.35 538.5 242.45 536 242.15
M 428.6 364.45
L 425.8 364.45 425.25 365.35 428.35 366.55 428.9 365.95 428.6 364.45
M 464.75 330.15
L 462.8 330.15 462.55 331.35 460.85 331.65 459.45 333.45 458.6 333.45 458.6 334.95 456.35 334.95 455.5 333.75 453 335.25 451.05 338.55 449.65 339.45 450.45 341.55 449.9 344.9 451.3 345.2 452.45 346.7 454.4 347.6 456.95 347.9 457.75 349.1 456.35 350.6 456.35 351.5 457.75 352.7 460.3 351.5 460.6 350 460 349.1 460.6 349.1 460.85 347.6 464.2 348.5 465.9 348.2 466.2 345.8 467.05 344.9 466.75 342.75 469 340.65 468.7 338.55 467 337.65 467.3 336.75 466.75 336.45 466.75 334.65 467.6 334.35 468.15 332.55 466.45 331.95 465.9 330.75 466.45 329.25 464.75 330.15
M 484.7 309.05
L 483 309.35 481.9 310.85 481.9 311.45 483.85 312.35 484.15 313.85 485.25 313.85 486.1 312.95 485.8 310.55 484.7 309.05
M 353.75 374.1
L 352.1 374.4 353.2 378.3 354.9 378.9 355.75 378 356.85 378.3 356.55 375.6 353.75 374.1
M 329.1 384.35
L 327.7 382.25 321.55 382.55 320.4 379.8 319 379.8 317.35 380.4 317.35 381.3 315.4 381 315.1 383.15 313.95 383.45 313.95 384.95 309.2 383.1 303.85 383.4 301.05 385.85 298.85 386.75 298.85 389.45 297.7 390.05 294.9 386.75 295.45 383.7 300.25 378.6 304.15 378 303.35 375.3 303.9 375.9 305.3 375.6 305.55 372.6 303.05 370.15 300.25 371.05 299.95 372.55 296.85 371.95 294.65 368.65 293.5 368.35 294.05 367.75 294 365.05 291.8 363.25 289.3 362.35 288.45 358.75 288.75 356.9 291 356.3 291.25 352.4 290.4 352.1 289.85 350.6 287.05 350.3 286.75 348.8 285.95 348.5 284.8 351.5 283.1 351.5 280.6 353 278.35 353.3 277.45 354.8 273.85 356.3 274.7 358.15 278.3 359.65 278.35 361.15 276.65 362.35 276.65 363.25 276.95 364.45 278.65 364.45 278.9 365.35 275.55 366.85 272.45 370.15 272.45 371.35 270.75 373.2 270.75 375.6 281.15 375.6 282 371.4 284.5 371.4 285.65 372.6 288.15 373.2 287.85 374.7 288.45 374.7 288.45 376.8 289.25 377.7 288.7 379.2 290.1 380.7 290.1 381.6 289.25 382.2 289.55 384.6 288.15 384.9 287.9 386.15 288.7 387.35 290.95 388.25 290.65 389.45 289.55 389.45 290.1 390.05 289.85 396.05 289 396.35 288.45 398.45 288.45 403.6 286.75 403.9 285.35 406.3 284.8 405.7 283.4 406 282 410.5 282.85 412.95 285.9 414.15 286.75 415.35 289.55 415.65 290.4 413.85 291.25 413.55 292.9 415.05 293.2 417.15 294.35 417.75 296.6 416.85 296.6 415.35 300.5 411.45 303.05 416.25 305.85 417.45 306.15 412.05 303.05 405.7 303.05 404.5 305.3 402.7 305.55 404.5 306.7 405.7 308.4 406.3 309.2 407.8 310.6 408.1 312.85 411.15 314.55 410.85 314.55 411.45 315.95 411.75 316.25 413.25 317.35 413.85 317.1 410.55 312.05 401.8 311.75 398.8 310.9 397.6 308.4 397.9 308.65 394.85 312.05 395.45 312.6 394.25 314.25 393.95 314.55 390.65 315.65 390.95 316.2 389.75 317.6 389.75 317.9 388.25 317.35 387.65 318.75 387.65 319.6 386.45 321 386.75 322.95 389.45 326.05 389.15 327.15 387.05 328.55 386.45 329.1 384.35
M 358.55 356.05
L 358.55 355.15 356.3 353.3 350.7 354.5 350.4 356.05 352.65 358.75 354.05 358.75 355.15 357.55 356.85 357.85 358.55 356.05
M 327.7 346.4
L 327.4 343.95 326.55 343.65 321.8 344.85 315.9 344.25 313.95 345.45 313.95 346.35 315.35 347.25 316.5 351.2 318.45 351.2 318.45 352.4 321.25 351.5 322.35 354.8 323.5 354.8 324.9 356 327.15 356 328.25 360.55 329.95 362.35 331.05 362.35 330.5 357.5 328.8 356.6 329.1 354.5 329.65 354.5 330.5 352.4 330.5 349.7 327.7 346.4
M 362.45 293.05
L 360.2 296.1 357.4 297.6 356.85 299.7 354.35 299.1 352.1 300.9 351.55 300.6 351.55 301.2 347.05 301.5 346.75 302.7 345.65 303.6 344.25 303.6 343.4 301.2 340.3 301.2 340.05 304.55 335.7 304.8 335.7 304.85 334.7 303.6 331.05 303 329.65 302.1 329.95 297.25 322.35 297.25 322.35 296.35 321.55 296.35 320.95 295.15 319.55 295.15 318.45 296.35 315.1 294.85 308.05 294.55 305 296.05 301.9 295.75 300.5 296.65 299.95 298.2 297.7 298.2 296.55 299.4 294.05 300 293.5 302.4 286.45 304.8 284.8 307.2 284.25 311.75 286.45 313.85 286.4 313.85 287.25 315.05 290.65 316.6 293.7 323.8 296.25 326.8 297.1 329.85 299.6 331.65 300.15 336.45 302.4 337.65 304.1 341 306.35 341.6 309.45 340.7 309.7 341.3 313.9 341.9 329.35 342.8 330.45 347.3 332.4 347.9 333.55 349.7 334.1 353.95 335.5 354.55 334.65 356.35 334.95 357.55 340.25 361.15 341.95 360.25 341.95 358.75 343.1 357.25 343.35 353.35 345.05 350.05 347.6 347.6 347.3 346.4 348.15 345.2 350.65 344.6 354.3 344.9 354.6 344.3 356.3 344.9 356.85 346.7 355.7 347.3 355.15 349.4 357.1 353.05 359.65 354.85 364.4 352.45 366.1 354.25 366.95 356.65 366.95 360.85 365.25 361.75 366.65 366.6 366.1 367.5 364.95 367.5 362.45 366.25 362.45 367.5 366.1 370.2 369.45 370.5 370.85 373.2 370.85 374.7 370.3 375.3 368.6 375 367.2 376.8 366.95 376.2 366.4 376.5 365.55 379.8 366.1 382.2 368.35 382.5 369.45 381.9 370.85 379.5 375.05 379.8 376.75 377.4 376.2 376.2 377.3 375 379 375 379.85 373.8 381 373.8 381 374.7 381.8 374.7 383.8 378 383.45 380.4 380.4 383.7 381 390.95 380.15 392.75 380.4 396.65 382.65 399.65 385.45 399.35 386.6 398.45 388.8 399.05 393.3 397.85 393.85 394.55 392.75 392.45 391.9 392.15 391.05 389.75 387.9 383.1 389.55 382.5 390.4 380.1 391.8 380.4 392.1 377.1 389.55 374.95 386.75 374.05 386.2 372.85 384.25 372.25 383.95 369.25 384.8 366.85 387.05 365.35 387.3 362.05 390.7 361.45 392.65 358.1 393.8 358.7 395.5 361.75 398.8 361.15 399.1 360.55 399.4 358.1 398.25 352.1 394.35 348.8 392.65 348.8 392.65 343.05 394.35 343.95 395.45 349.4 396.6 348.5 400.25 348.5 403.85 351.5 403.05 355.1 403.85 355.7 404.7 358.4 404.7 363.25 405.85 364.45 404.45 368.95 406.7 371.05 406.4 371.95 408.1 373.8 410.6 373.5 411.15 374.1 411.15 376.2 412.3 378.9 412 380.4 410.6 381.3 411.45 384.3 415.95 386.4 421.8 385.2 422.95 386.7 424.65 386.7 425.5 384.6 426.6 385.5 429.4 385.2 429.1 386.4 428 386.7 428 387.95 429.4 389.15 430.5 388.85 430.25 385.8 431.1 383.7 429.1 382.8 428.55 381 424.65 381.6 425.2 375.6 424.65 370.75 423.5 368.05 421 365.65 421 364.15 419.85 363.25 421 361.75 422.1 361.75 422.95 362.65 425.75 362.65 426.05 361.45 428.85 362.05 429.95 361.15 430.25 359.6 429.1 359 428.55 359.6 423.8 359.9 423.5 359.3 421.55 359 421.55 357.8 422.4 357.5 423.5 354.2 420.45 350.9 421 350 420.7 348.2 418.45 347.3 416.2 343.65 416.5 342.8 419.05 343.4 419.9 342.15 416.45 335.2 413.45 334.75 410.9 332.5 407.5 331.55 407.55 331.55 411 332.5 413.55 334.75 416.5 335.2 420 342.15 421.35 340.35 423.3 341.25 426.4 336.45 425 334.05 425.8 333.45 425.8 327.7 426.95 327.1 426.95 325.9 422.15 321.7 421.9 320.2 420.2 319.85 418.5 317.8 416.85 317.5 415.45 314.45 414.6 315.95 414.9 317.5 412.35 319.3 412.1 317.5 414.3 313.25 413.5 313.25 412.1 311.75 411.25 307.85 409 305.45 406.45 304.25 404.8 301.8 403.65 301.5 401.45 303 397.5 303.9 395.8 302.7 395.25 300 390.75 297 389.65 297 387.7 295.5 385.75 295.5 385.15 294.3 382.35 293.4 382.35 292.8 378.7 292.8 377.6 291.25 375.05 291.55 373.1 290.05 371.7 290.05 371.45 290.95 368.05 290.65 365.55 292.45 362.45 293.05
M 472.65 260.25
L 472.35 256.9 465.05 250.3 463.1 250.9 463.4 252.1 462.55 254.2 463.4 257.2 464.5 257.8 464.2 258.7 466.2 260.25 471.8 261.15 472.65 260.25
M 456.4 217.45
L 456.95 215.35 455.25 216.25 456.4 217.45
M 455.8 205.1
L 456.4 204.5 456.4 202.35 455.55 203.55 454.15 203.85 454.4 204.8 455.8 205.1
M 457.25 198.75
L 459.2 200.25 459.2 198.45 458.05 198.45 458.05 197.85 457.25 198.75
M 466.2 205.4
L 465.9 204.5 464.8 204.8 464.5 204.2 464.8 203 461.7 204.2 460.3 206.35 460.85 207.25 459.75 208.75 460.05 209.65 456.95 212.05 457.8 212.05 459.2 214.45 462.25 216.55 462 219.3 463.1 220.5 462.85 222.6 464.25 222.3 465.9 223.5 465.9 224.7 464.8 225.3 464.8 227.1 466.2 227.7 467.3 226.2 467.3 224.1 466.45 223.2 465.65 216.85 466.2 215.65 467.6 215.35 467.6 213.25 465.65 212.95 465.05 211.7 465.65 211.4 463.65 209.9 463.95 207.8 462.55 205.4 466.2 205.4
M 472.1 196.95
L 470.4 197.55 469.85 203.25 470.95 207.5 470.7 210.85 472.35 212.35 474.3 212.95 476.3 217.75 476 218.95 475.15 219.25 476 222.6 475.15 224.7 473.75 225.3 473.2 228 474.05 230.1 474.6 230.1 475.15 232.85 476.3 233.45 477.1 235.25 479.9 236.15 481.6 238.25 483 237.65 483.85 235.25 485.25 235.55 486.65 237.95 488.6 237.95 488.3 239.15 486.65 239.15 486.65 241.3 485.5 243.7 487.2 246.4 487.2 249.1 488.3 250.3 489.7 256.35 491.7 256.65 491.95 256.05 493.65 256.35 494.8 255.75 496.2 257.25 497 257.25 498.7 254.85 500.65 254.85 500.95 247.9 497.3 243.1 496.45 240.35 495.05 240.05 494.5 239.15 495.05 235.55 494.25 233.4 496.2 233.1 496.45 232.5 496.2 231.3 497.3 229.5 497.05 226.2 498.15 223.2 495.05 221.65 493.95 220.15 490.3 219.25 489.75 218.35 490.85 213.25 489.75 209.3 487.5 206.6 487.2 204.5 488.6 202.05 487.5 199.65 484.7 199.95 483.55 201.75 482.75 201.75 484.15 199.35 483.85 197.85 481.6 197.55 479.35 198.45 477.4 196.95 478.25 201.15 477.4 203.25 476.55 203.55 476 202.65 476.55 199.95 476 198.45 472.1 196.95
M 452.75 197.55
L 450.2 196.05 448.8 196.35 449.35 198.15 450.5 197.85 450.75 199.35 452.45 199.65 452.75 197.55
M 391.9 132.1
L 392.45 131.5 391.05 131.5 390.8 132.1 390.8 135.15 391.6 135.15 391.9 133.9 392.45 133.9 391.9 132.1
M 392.45 121.25
L 393 122.75 395 123.4 395.8 122.15 399.45 121.25 401.15 119.75 403.95 115.2 403.1 113.1 401.7 112.5 400.05 112.5 396.7 115.55 395.85 119.15 392.45 121.25
M 389.1 108.9
L 389.65 111 393 111 392.75 109.2 391.05 107.4 389.1 108.9
M 395.55 27.75
L 396.4 25.35 395.55 24.1 393 25.65 390.75 25.95 392.2 28.65 394.15 28.65 395.55 27.75
M 454.7 44.95
L 454.95 46.45 458.35 47.05 458.6 45.55 456.65 45.25 456.4 44.65 454.7 44.95
M 478.8 22
L 477.1 22 474.85 23.8 475.15 27.15 476.85 27.45 480.75 24.1 478.8 22
M 475.15 18.4
L 475.45 16.55 477.95 16.85 478.25 15.05 481.6 16.85 481.6 16.25 483.55 15.95 485.25 13.55 486.95 13.25 479.95 12.95 477.15 12.05 470.4 12.65 463.95 12.05 463.1 10.85 463.95 8.4 463.1 7.8 459.75 7.8 458.65 9.6 457.8 9.6 457.5 12.35 459.45 14.75 458.65 15.65 456.1 15.65 456.1 16.85 460.6 20.2 460.6 21.1 462.55 22.3 463.95 25 462.8 25.9 461.4 25.9 462 24.4 461.15 24.4 460 25.9 457.5 25.9 457.5 28.35 455.25 30.15 455.25 31.65 457.5 32.25 457.5 31.65 458.6 31.35 464.8 31.35 467 29.25 469.25 28.95 469.8 29.55 469.55 32.6 474.05 33.2 476 29.55 475.45 27.75 472.9 28.35 468.7 25.05 467.3 22.9 467 20.8 463.95 19.9 464.5 16.6 465.9 15.05 466.75 15.65 468.15 14.75 473.75 19.6 475.15 18.4
M 600.2 106.2
L 599.35 103.45 599.35 103.5 597.95 103.5 597.95 104.4 599.35 106.2 600.2 106.2
M 556.75 172.25
L 555.6 172.55 556.15 175.55 557.3 175.55 556.75 172.25
M 542.15 85.05
L 540.5 85.05 540.75 86.25 543.3 86.85 543.3 85.95 542.15 85.95 542.15 85.05
M 525.05 87.75
L 523.9 87.75 523.65 89.25 525.3 94.1 527.3 93.8 528.4 95 528.1 98.6 529.25 98.6 528.7 104.95 532.05 105.85 533.2 103.75 534.6 103.45 535.15 101.35 534.3 100.75 534.6 98.95 537.1 98 538.5 94.7 536.85 92 534.6 90.2 535.7 86.25 534.6 83.85 530.4 82.35 528.15 83.85 527.3 85.95 525.9 86.25 525.05 87.75
M 502.35 89
L 501.5 88.4 500.65 89.3 500.95 93.2 502.05 92.9 502.35 92 502.35 89
M 525.65 67.25
L 525.65 68.15 526.75 68.45 526.75 69.35 528.15 70.3 527.6 71.5 528.15 72.1 531.25 72.1 531.8 71.5 531.8 67.85 532.9 67.25 532.9 65.45 535.7 63.95 535.45 62.45 533.2 63.35 529.85 62.15 528.45 63.35 526.75 63.65 526.75 64.55 527.6 64.85 527.6 66.65 525.65 67.25
M 486.6 46.15
L 487.45 45.55 485.5 41.9 478.75 39.2 478.5 40.4 479.6 41.3 479.05 44.95 480.2 46.45 479.9 47.95 477.95 49.75 477.4 52.45 476 52.45 475.15 53.7 474.3 56.4 472.6 55.5 472.35 54 471.5 53.4 470.35 53.4 469.5 54.3 464.5 54.3 465.6 56.1 466.7 56.1 468.1 57.9 466.7 59.4 466.7 60.3 467.85 60.9 466.45 62.45 464.2 62.15 463.35 59.4 462.5 59.4 461.95 58.2 459.15 58.8 459.15 60.9 458.05 60.3 457.75 58.5 453.55 58.5 454.65 56.95 454.4 55.8 447.4 56.4 445.4 57 445.4 58.5 444.85 58.5 443.45 57 444.6 53.1 442.35 52.8 443.2 50.7 442.35 50.7 442.35 49.45 444.6 49.75 444.6 50.35 446.55 51.3 447.7 53.4 448.5 53.4 448.5 51 449.35 51 449.65 48.25 451.65 47.9 452.2 45.2 455.3 43.4 455.3 42.5 456.15 42.2 455.85 39.75 454.7 39.45 452.75 40.4 451.1 42.5 449.1 43.1 448.3 41.3 451.1 36.15 445.75 37.05 443.8 35.25 443.25 36.45 444.35 37.65 442.7 39.75 439.3 39.75 438.75 38.55 436.25 38.55 435.4 40.05 432.85 40.05 432 36.45 432.85 34.05 434.25 32.25 436.8 31.95 437.35 29.8 436.5 28 433.7 27.7 432.6 30.1 431.45 30.7 431.45 28.9 433.4 25.6 432.3 24.1 430.05 23.8 429.5 25.3 427.55 26.5 425.85 25.9 425.55 25 428.1 22.25 428.35 19.85 431.15 19.25 432 17.75 430.6 17.45 426.95 19.55 426.7 18.65 430.05 15.35 430.05 14.75 429.2 14.75 428.1 15.35 427.25 14.15 424.45 13.85 424.15 17.45 423.3 17.45 422.2 15.95 419.65 15.95 419.95 17.75 418.25 18.95 416.85 17.45 416.85 14.45 416.3 13.85 414.6 13.55 413.5 14.75 412.65 13.85 411.55 14.15 411 16.85 410.15 17.45 410.15 20.5 407.9 23.2 407.05 28.95 405.35 30.15 405.1 31.65 402.3 32.85 399.75 31.05 398.65 31.05 398.35 33.45 395.8 34.65 394.95 35.9 390.75 34.35 388.55 39.2 387.15 40.7 385.7 40.1 385.7 38 385.15 37.7 383.2 39.8 379.55 39.5 379.25 40.7 378.15 40.7 377.55 36.5 378.7 35 378.7 33.45 378.15 33.45 377.85 31.65 378.4 30.45 381.8 31.05 382.6 30.15 382.9 28.95 384.3 28 385.15 23.5 386.55 22.9 387.7 20.8 393 20.2 394.15 21.7 394.15 21.1 396.1 20.8 396.1 18.55 397.8 15.8 394.4 12.15 392.25 11.7 386.75 7.55 383.75 7.55 375.3 5.75 374 6.65 371.05 4.8 362.1 7.1 360.85 8.05 355.3 6.65 349.8 7.1 348.1 6.2 347.65 3 345.95 1.2 344.25 2.1 341.3 2.1 338.75 0.7 336.2 0.7 334.5 2.55 333.2 2.55 331.95 0.7 330.25 0.25 327.25 3 326.4 7.6 325.1 8.5 323.85 7.6 321.7 8.05 321.7 10.3 319.6 13.05 321.7 14 322.15 15.8 317.9 19 318.75 19.95 317.9 21.3 314.05 22.2 309.8 19.45 308.55 20.4 299.6 21.75 297.5 24.05 296.25 24.05 295.4 23.15 291.55 25.85 291.95 27.7 290.7 27.7 289.85 29.55 285.6 29.55 285.6 31.8 283.9 34.1 282.2 35 279.65 34.1 278.35 31.8 277.95 27.7 276.7 29.05 275 29.55 273.7 31.8 272 32.75 270.7 32.3 271.55 30.9 271.15 29.1 266 29.95 262.25 26.8 259.25 26.8 255.85 30.9 248.65 33.65 249.05 35 254.6 39.6 255 41.4 252.45 46 254.15 45.55 255.25 44.15 254.2 45.55 252.5 46 246.1 50.1 241.45 46.9 237.2 47.35 231.65 49.2 227.4 52.85 226.15 56.5 226.15 59.7 223.15 62.9 215.95 63.4 209.55 61.55 207.85 63.4 206.15 62.9 201.05 68.85 199.4 69.3 194.55 74.8 193.95 79 192 80.85 192.3 83.55 192.85 83.55 192.55 85.65 189.5 86.85 188.9 88.05 186.7 88.4 182.75 90.5 182.75 92.3 181.35 93.8 179.1 94.4 178.25 93.2 176.85 93.5 178.85 95.9 179.95 95.9 181.35 97.1 181.35 102.55 181.9 102.55 182.2 96.8 182.75 96.8 183.85 93.8 186.95 91.7 189.75 91.4 189.75 89.9 190.9 89.6 195.95 95.6 198.15 95.9 198.75 97.75 200.7 99.55 206 101.95 209.65 104.65 211.35 104.95 211.9 107.7 209.65 106.45 209.65 105.85 206 104.35 204.6 102.85 199.85 101.05 197.6 101.05 197.05 101.65 196.75 105.85 195.65 106.45 195.1 104.95 196.2 97.75 195.1 95.9 192.85 94.7 191.15 94.7 189.75 95.9 187.8 95.9 185.25 98.95 186.4 99.25 188.35 101.65 187.25 103.15 185 102.55 183.05 104.65 181.9 104.65 176.85 99.55 176.6 97.4 174.6 98.35 174.6 97.4 175.75 96.5 176.05 91.1 178.25 91.1 179.1 82.05 172.65 80.55 171 78.7 167.9 79 166.75 78.4 164.55 81.45 162.85 82.35 161.45 88.05 160.35 89.3 159.5 92 157.8 93.8 156.4 93.8 155.55 96.2 153.9 96.5 152.75 98.65 148.85 101.65 146.6 106.15 145.75 111 144.05 112.5 143.8 113.7 137.35 117.35 132 117.95 125 122.75 121.9 122.75 120.25 124.55 119.95 128.8 116.3 131.2 113.5 135.45 113.5 138.45 112.4 142.05 105.1 146.9 104.9 147.15 104.75 149.3 104.85 147.15 100.3 148.05 98.9 149.25 96.1 149.85 95.3 151.1 88.85 150.2 83.5 152.6 80.7 152.6 79.55 156.8 75.1 160.15 74.55 161.65 73.4 161.65 67.8 169.5 68.65 171 73.15 172.2 75.35 171.9 77.05 173.7 79.3 173.4 81.25 175.25 81.55 178.85 80.15 179.75 80.15 180.95 81 181.55 81.25 184.55 86.6 187.3 87.45 190.6 86.05 197.55 84.1 199.35 82.95 199.05 82.65 199.95 81.55 200.25 81.2 202.4 84 207.25 84.85 206.65 84.85 205.45 85.95 204.85 87.35 208.15 86.8 209.95 93 213.25 94.1 212.35 96.9 212.05 98.05 210.25 100.5 210.55 101.4 212.35 100 216.3 100.55 218.4 101.7 218.4 104.2 211.45 105.35 211.15 106.45 213.55 107.6 213.55 108.15 216 107.6 217.2 108.4 218.1 111.5 219.3 112.65 221.1 114.05 220.8 114.6 219.9 115.45 221.7 118.5 224.1 121.05 224.4 121.35 222.9 122.45 222.9 121.6 224.4 122.75 225.6 123.85 225 122.75 219.6 123.85 219.3 124.7 220.5 126.4 220.8 128.05 223.5 128.65 223.5 128.9 222 130.05 221.7 128.9 219.9 128.35 220.5 127.5 220.2 127.25 217.45 125.85 214.45 126.4 213.55 129.45 216.85 133.95 215.95 135.35 215.05 135.35 212.65 134.5 211.75 134.8 210.25 136.75 210.25 138.45 212.35 140.95 212.65 143.2 215.05 144.05 216.55 143.5 218.4 144.05 219 146.85 219 147.4 217.45 146.55 216.55 146.3 213.85 148.25 215.05 148.8 216.55 151.6 215.05 153.85 215.05 155.25 213.55 155.8 211.45 156.35 211.45 156.35 209.05 157.2 209.05 157.75 211.15 158.9 211.15 158.6 212.35 159.75 214.45 162.85 214.75 163.4 215.65 165.05 215.95 166.45 217.75 170.95 217.15 172.35 215.65 177.15 213.85 178.25 217.75 181.6 216.55 185 220.15 185.55 222.25 187.8 224.4 189.45 224.7 190.6 224.1 193.7 225.3 194.85 224.7 194.5 224.45 194.8 224.65 198.15 225.3 198.15 224.65 201.2 224.05 202.65 222.85 206.25 223.15 206.85 221.65 207.4 221.95 208.8 219.85 209.9 219.85 210.75 218.95 216.65 219.85 217.75 217.75 220.85 217.15 223.1 214.7 224.75 214.7 225.6 213.5 227.3 214.1 230.95 213.8 232.6 215.9 236 216.5 239.1 215.9 239.35 214.4 241.05 212.6 246.1 209.9 250.85 210.5 256.45 213.8 257.3 212.6 259.55 212.6 260.4 211.7 263.2 211.4 263.2 210.8 267.15 210.5 267.95 209.3 271.35 207.5 273 207.5 276.95 210.2 277.8 212.3 279.75 213.8 280.6 216.25 280.35 217.8 280.15 217.8 279.75 217.9 279.2 220.15 279.75 220.15 279.75 221.35 281.15 220.75 282.85 224.1 282.55 231.3 285.65 234.05 287.05 232.8 287.9 233.1 291 240.95 291.55 244.25 295.45 242.75 296.85 243.05 297.15 244.55 292.4 245.75 294.05 253.6 296.05 254.5 301.05 252.7 302.75 253 303.05 254.8 292.95 258.4 291 257.8 289.85 261.45 296.6 266.55 299.65 266.55 302.2 265.05 308.35 265.35 310.6 268.05 311.7 268.05 312.55 266.55 312 264.75 315.35 261.45 314.25 259.65 311.45 257.8 312.85 255.4 314.8 255.4 320.85 259.9 324.05 262.95 326.55 267.45 326.55 268.05 323.5 268.65 324.05 277.4 324.9 279.8 324.05 281.05 324.6 285.55 329.4 282.55 331.6 281.95 333 280.4 335 280.1 335.55 284.95 334.15 285.25 334.15 287.65 336.1 287.65 336.4 289.75 333.85 290.95 335.85 290.95 336.95 292.45 338.05 292.8 339.75 292.2 342.85 293.1 344.8 291.55 345.05 290.35 348.45 286.75 350.4 287.05 352.1 288.85 353.5 288.25 353.75 287.05 354.35 287.05 354.9 285.25 356 284.65 358.25 284.95 358.25 284.35 359.35 284.35 362.15 282.2 363 275 362.15 274.7 362.15 272.9 360.75 270.15 361.05 268.95 362.45 267.75 362.45 266.55 363 266.55 363.6 264.15 365 262.95 367.8 264.75 376.2 273.8 379.3 275.9 382.1 279.5 384.9 281.6 386.3 280.4 386.25 279.2 384.6 277.7 384.6 276.2 383.5 275.3 383.75 274.4 382.65 273.8 380.4 274.1 380.4 273.2 376.45 270.45 376.45 269.55 375.35 269.25 373.4 266.55 371.7 265.95 369.45 263.55 370.05 261.45 372.25 263.85 373.4 264.15 373.95 265.35 378.45 267.95 379.3 270.5 382.95 270.5 386.3 272.3 386.85 274.7 391.05 278.3 391.6 280.1 393.6 282.2 398.9 286.45 401.45 290.95 406.45 295.5 406.2 298.2 407.05 299.4 411.25 300.6 412.35 300.6 413.2 299.7 411.85 300.05 411.85 300 413.15 299.65 414 298.15 415.15 298.15 416.8 296.35 416.25 295.15 420.2 291.55 422.4 287.9 425.8 286.1 426.1 284.3 425.5 284.3 425.8 282.8 424.95 280.65 426.65 280.35 427.5 280.95 427.2 283.1 433.35 284 433.65 286.7 435.9 290 435.6 292.1 438.15 294.2 438.45 298.75 436.2 303.25 436.75 306.25 434.5 308.7 433.95 311.4 435.05 312.9 437.85 313.5 437.85 312.9 439.55 312.6 441.8 310.2 442.9 310.2 442.9 311.4 441.5 312.9 442.35 312.9 442.65 313.8 444.85 314.1 444.85 315.3 441.5 315 438.95 317.75 438.95 318.65 441.2 320.75 441.8 323.15 442.9 323.75 442.6 325.55 445.15 325.25 446.25 326.45 449.05 322.85 449.65 323.15 449.65 320.15 452.45 318.6 452.15 317.1 451.6 317.1 451.85 315.9 452.7 315.9 453.25 316.8 456.35 316.5 457.75 317.4 459.45 317.4 460 320.1 461.4 320.7 461.4 321.3 465.35 322.5 466.45 324.05 466.75 326.15 469 327.95 470.65 327.65 470.95 326.75 471.25 324.35 470.4 323.75 470.4 322.25 470.95 321.35 473.75 323.45 475.15 323.45 476.85 322.25 477.65 318.65 475.7 317.75 474.3 318.65 474.3 316.5 472.35 315.6 471.8 312 470.95 311.4 470.65 308.4 472.35 307.8 473.2 306.6 469.55 306.3 468.15 307.5 467.6 309.3 466.45 309.9 465.65 309.9 466.2 307.5 465.35 306.9 460.85 307.2 459.2 306.6 458.05 305.1 457.75 302.95 460.3 301.75 460.85 299.35 458.6 299.95 458.35 297.25 460.55 294.85 463.35 294.85 463.95 296.05 463.35 296.95 464.2 296.95 464.75 297.85 470.1 299.35 472.05 299.05 473.45 295.75 475.7 294.85 476.25 293.65 479.65 293.65 481.05 292.15 481.3 289.4 480.45 287.6 482.15 287.3 482.15 284 479.9 282.5 479.9 281.6 477.65 279.2 476.85 279.2 476.55 277.95 474.6 276.75 474.85 274.95 473.75 273.45 472.05 273.45 471.75 274.35 470.4 273.75 469.8 274.65 467.85 274.05 465.9 275.85 466.2 276.45 465.05 276.75 465.35 279.45 463.1 279.75 462.8 276.75 460.85 276.75 461.7 274.05 462.55 273.75 462.55 270.4 460.3 269.55 460.3 265.9 459.2 261.4 457.5 262.9 456.1 262.9 455.25 261.1 454.15 261.1 452.75 261.4 452.2 262.3 448.25 263.2 446.3 260.5 443.2 260.2 441.8 259.3 442.05 252.65 440.4 250.25 440.7 246.95 439.3 243.6 437.05 243 436.2 240.3 436.75 238.5 436.2 238.2 435.9 235.5 437.6 232.2 438.15 232.2 438.7 229.2 435.9 228.6 432.85 225.55 430.6 224.95 429.75 223.15 428.9 223.45 428.6 225.85 425.55 226.15 424.4 225.25 423.3 226.15 422.45 225.85 429.15 222.55 428.6 220.45 426.95 219.25 426.95 218.35 427.2 217.45 430 217.45 429.75 215 430.85 214.4 430.55 211.1 432.55 211.4 432.8 212 432.8 210.2 433.95 209 433.65 207.2 434.5 207.2 435.9 208.7 435.35 212.3 436.2 212.9 436.75 212.3 439 212.6 439.55 214.1 438.4 218.05 437.3 219.25 435.05 219.85 434.5 223.15 440.65 222.85 440.95 223.75 439.55 224.05 439.25 225.55 441.25 225.25 442.9 228.9 444.6 230.1 445.45 230.1 445.7 227.1 447.7 225.6 447.4 222.85 448.5 221.35 447.95 218.95 445.15 217.15 445.15 217.1 444.6 217.1 444.05 214.95 442.9 214.35 442.9 212.25 441.8 210.45 442.05 207.75 443.75 205.95 444.05 203.8 445.1 202.6 443.75 199.9 441.8 200.2 441.5 199.3 447.4 193.25 446.25 191.15 446.25 187.85 446.8 187.85 446.8 184.85 448.2 182.7 449.6 183 450.45 184.2 451.85 184.2 452.15 183 453.85 181.5 457.75 182.4 458.6 183 458.6 185.15 460 186.35 460.85 188.75 464.2 189.35 466.45 188.15 468.4 191.15 468.7 193.85 472.35 192.65 472.35 192.05 474 192.05 474.55 193.9 477.35 192.35 480.45 192.95 480.75 191.75 478.8 190.25 478.8 189.35 480.45 187.25 480.75 184.5 487.75 183.3 488.9 184.2 487.5 184.5 487.5 188.75 486.35 188.75 484.65 192.95 486.9 194.15 488.3 191.45 489.15 191.15 488.05 194.15 488.6 196.3 491.7 195.35 491.7 194.45 492.55 194.15 493.1 196.85 497 199.9 500.4 200.5 502.35 201.4 502.6 202.3 505.15 200.5 505.15 203.2 504.3 205 504.6 208.05 503.45 209.55 504.05 211.35 502.9 211.65 502.9 214.35 501.2 215.25 501.5 217.1 504.6 220.7 507.4 220.7 509.35 223.1 511.3 223.4 511.85 225.5 508.2 225.2 508.2 226.1 509.05 227.05 509.35 229.15 513.8 234.25 515.5 232.45 516.05 230.35 517.75 230.05 518.6 231.25 520 230.65 520 227.35 521.4 227.35 521.4 226.1 522.5 225.8 523.05 229.45 521.95 230.35 522.5 232.45 521.65 233.65 522.8 234.25 523.35 238.5 525.05 239.7 524.75 243.3 525.3 245.1 526.7 246.6 529.25 245.7 530.1 244.8 530.35 240.9 532.05 240.3 531.5 236.95 530.35 236.35 530.95 231.55 530.35 229.15 531.75 228.55 532.9 230.05 534.3 230.35 534.6 231.55 536.25 232.15 536.8 230.65 538.2 231.25 538.5 229.75 537.65 228.55 534.85 227.95 535.95 225.5 539.35 226.45 539.9 227.95 542.15 228.55 542.4 227.05 544.65 227.05 544.95 224.95 546.35 224 546.05 222.5 550.25 222.2 549.15 220.7 545.75 220.1 547.75 216.5 550.55 216.8 552.2 214.65 551.95 211.95 550.55 211.65 550.25 210.75 546.9 208.95 546.05 205 547.45 202.9 548.85 203.5 549.4 204.7 550.8 205 553.35 202.9 553.35 205.3 554.75 208.05 555.6 208.35 556.4 212.25 557.8 213.75 561.2 214.05 562.05 213.45 561.75 211.95 562.85 210.75 562.3 208.05 561.45 207.75 558.65 202.6 558.95 202 561.75 202 563.15 200.8 561.75 196.6 561.75 188.75 559.8 187.55 558.1 187.85 558.1 186.05 555.6 188.15 554.75 185.75 552.8 186.05 552.8 183.3 551.1 180.3 549.15 180.6 547.75 177.9 546.6 177.9 546.3 179.4 544.95 178.8 544.1 180.3 542.7 180.3 542.4 178.5 541 178.2 540.15 177 541 175.8 543.8 175.5 545.5 173.7 546.05 167.95 545.2 167.35 545.2 166.15 546.9 164.35 548.85 166.45 549.95 166.15 550.25 164.35 548.55 162.85 548.85 161 551.1 157.7 553.05 158.3 556.15 153.5 557.25 153.5 558.4 155 559.8 155.3 563.45 154.4 565.1 157.1 565.4 159.8 568.5 161.3 568.8 162.5 570.2 163.4 569.9 164.05 571.85 163.4 574.65 163.7 576.6 162.5 576.35 160.7 575.2 160.1 575.75 158 574.35 157.1 574.35 154.95 573.25 154.95 572.4 154.05 570.7 154.35 570.45 152.85 568.75 151.95 569.05 147.45 568.2 146.8 567.9 145.3 566.8 144.7 567.35 143.5 568.75 143.5 568.75 142.9 569.85 142.6 569.85 140.2 573.25 137.2 571.3 136.6 570.75 138.1 567.95 137.5 567.35 138.1 565.95 134.45 563.45 136 562.9 135.1 563.15 131.15 562.05 132.05 561.5 134.2 557.55 133.9 555.3 134.5 552.25 136.6 548.3 135.7 547.45 133.6 546.6 133.6 545.2 135.4 542.95 135.1 542.15 135.7 540.45 134.8 539.05 130.75 539.1 130.8 538.8 128.5 537.7 127.55 537.7 125.15 540.8 121.55 541.3 117 538.25 114.3 538.25 112.5 534.6 111.9 532.4 109.8 531.25 109.8 530.7 111.3 531.25 114.3 530.7 115.2 532.4 119.75 530.7 119.75 529.3 118.85 527.9 120.05 527.6 121.25 525.9 121.55 524.5 120.95 522.85 122.15 522.85 123.65 524.25 125.2 522.55 130.9 523.4 134.55 524.8 134.55 524.5 132.1 525.35 132.1 526.2 133.35 524.5 135.75 524.8 139.35 524.25 140.55 524.25 146 525.65 148.7 523.95 149 524.25 150.5 525.9 152.05 519.75 152.05 518.35 150.5 518.05 148.7 520.85 147.8 521.15 145.7 519.75 140.9 517.8 137.85 518.05 134.85 516.65 133.65 514.4 134.25 512.75 137.55 512.15 137.55 512.15 141.8 508.8 141.8 508.25 142.7 508.55 144.5 506.55 146 505.15 145.7 506.85 142.35 507.4 142.35 507.95 138.75 507.4 136.95 504.6 133.9 504.6 132.4 509.4 132.7 512.2 127.6 511.9 125.2 508.8 124 509.1 120.05 507.4 117.05 509.35 111 508.25 108.3 509.1 107.7 512.75 110.4 515 110.7 518.35 108.3 514.7 99.85 515 96.55 513.3 91.1 511.9 90.2 510.2 92 509.95 94.7 507.7 95 507.7 95.9 509.1 96.8 509.65 99.25 508.25 103.15 506.3 104.35 506.85 107.1 505.15 107.7 501.8 106.45 499.85 109.2 498.15 109.2 497.6 107.35 499 105.25 499.55 100.45 500.1 99.55 501.8 99.8 501.5 96.5 499.25 96.5 497.3 98.3 494.5 97.7 493.65 95.6 495.05 92.9 494.25 92.6 492.55 89 491.4 89 490.3 92.6 486.65 92.6 485.5 93.2 483.3 97.1 478.8 98.65 477.65 100.75 475.7 102.25 474.6 107.1 472.05 108 473.2 114.35 471.8 117.05 469.8 117.05 469.55 114.95 465.35 115.55 463.65 113.1 462.25 112.5 461.4 113.1 461.15 121.55 459.75 121.55 458.9 118.85 456.1 117.65 454.4 120.05 451.9 120.95 448.8 126.4 446.85 127 446.85 128.8 447.7 130 449.1 129.1 453 129.7 452.7 130.9 450.75 132.4 450.75 133.95 451.9 137.25 453 138.15 453.3 141.5 455 143 454.7 145.4 455.8 144.8 457.2 145.1 457.5 147.2 454.4 149.3 452.2 152.35 447.15 154.15 445.75 155.65 444.6 159.9 445.45 161.4 445.15 164.4 444.6 164.4 444.3 162 442.9 160.8 442.9 159.9 440.1 158.05 439.85 155.65 437.9 155.65 441.25 150.25 440.65 142.7 438.75 140.6 438.15 138.45 437.9 139.35 436.75 139.65 425.25 141.5 423.3 138.15 422.45 139.05 421.35 139.05 420.5 140.25 416 141.15 415.15 142.35 413.75 142.05 413.75 140.55 415.7 138.45 417.15 138.45 417.4 137.85 416 137.25 415.45 138.15 414.3 138.15 412.35 135.75 409.55 135.45 408.45 137.25 407.6 136.65 406.45 136.95 406.45 138.15 408.15 139.35 408.15 142.05 405.35 144.5 403.65 144.8 403.1 146.6 400.05 145.4 396.4 146.6 393.3 152.3 393 155.35 392.15 155.35 392.45 157.15 391.35 161.65 390.5 162.3 390.75 164.4 389.95 165.3 391.05 167.1 390.75 168.6 387.95 168.9 382.65 175.85 380.1 178.55 379 178.85 377.9 180.95 375.9 182.2 374.5 185.2 371.7 187.3 370.3 189.4 369.2 189.7 369.45 190.6 367.25 191.8 365.85 194.25 363.85 195.45 363.3 197.55 362.15 198.75 361.05 199.05 359.65 200.85 357.4 201.45 357.15 200.85 358.25 200.55 362.15 196.35 362.15 195.45 363.85 193.95 364.15 192.45 366.1 190.9 366.1 190 369.2 187.9 370.05 185.8 372.55 184 373.1 182.2 374.8 181.85 375.9 179.15 386.55 168.3 385.15 165.3 384.35 165.3 382.65 163.5 384.05 158.95 383.75 153.25 384.6 150.5 381.25 150.5 377.5 146.6 376.45 148.1 377.45 146.6 376.45 145.7 373.65 145.1 372.8 142.4 371.15 141.8 371.15 140.9 372.25 140 372.25 137.85 371.4 136.95 367.5 136.05 366.1 134.55 365.8 133.05 364.1 132.4 359.9 132.1 357.7 133.35 355.15 132.75 352.9 131.2 352.9 129.7 350.65 129.7 348.4 128.15 346.75 124.6 347.6 123.1 349.8 122.5 350.1 120.05 351.5 119.15 357.4 119.75 362.45 121.25 366.35 119.45 368.05 117.65 367.75 114.65 370.3 111.9 371.4 111.9 371.7 113.45 374.5 114.95 376.75 114.95 377.3 115.55 377.3 116.15 374.8 116.45 374.2 118.25 375.05 120.05 377 120.05 378.7 119.15 380.4 119.45 380.1 121.25 378.7 121.85 379.25 123.1 384.05 123.4 385.45 125.5 386.85 124.6 386.25 122.75 390.2 123.7 391.3 122.45 390.75 121.25 385.7 119.4 384.3 117.65 386.55 115.55 387.7 115.85 387.95 118.25 389.35 118.85 393.6 118.25 393.6 116.75 391.35 117.05 389.95 116.45 388 114 384.35 114 383.8 113.1 381.25 113.4 378.15 111.9 377.9 109.5 379 106.5 378.45 104.05 380.7 100.45 382.1 100.15 382.95 98.05 384.9 98.05 386.05 99.85 386.3 102.9 387.45 102.6 388 103.15 393.05 102.25 395.3 99.55 400.3 98.35 401.7 100.15 401.7 102.25 403.7 102.85 416.85 116.45 416.85 117.35 416 117.35 416 122.15 416.55 122.15 417.95 120.05 420.2 119.45 420.5 118.25 423.3 117.95 424.15 119.15 428.35 115.55 432.25 109.5 435.35 108.3 437.05 106.2 443.2 103.45 444.05 101.65 442.65 101.95 441.8 101.35 443.2 99.55 446 98.95 449.95 99.85 451.9 98.35 453.6 98.05 455 96.5 459.75 95.6 460.3 94.7 463.4 93.8 465.35 90.8 469.85 90.2 473.75 87.15 475.7 87.15 477.7 85.95 477.95 85.05 479.35 84.45 479.35 83.55 477.95 82.65 479.1 80.55 481.6 80.25 483.3 81.15 485.25 79.95 486.4 77.85 489.2 76 490.05 73.9 493.4 71.2 495.65 67.85 497.3 67.55 500.15 64.55 501.25 64.55 507.15 59.4 506.85 57 504.3 55.8 504.9 57.45 502.8 58.8 501.5 61.55 497.7 64.3 493.45 64.75 486.2 69.8 484.5 72.05 481.95 73 472.6 79.4 472.55 79.4 481.9 73 484.45 72.05 486.15 69.75 493.35 64.75 497.6 64.3 501.4 61.55 502.7 58.8 504.85 57.45 504.2 55.8 499.5 57.9 496.95 60.9 494.45 61.2 489.1 63.35 484.05 63.35 482.1 64.85 479.3 64.85 475.95 66.65 474.55 68.45 472.85 67.85 470.35 65.15 468.35 65.15 467.55 63.65 471.75 60.9 473.45 60.9 475.1 57.9 477.35 57.3 479.35 58.8 480.45 58.8 482.1 56.1 486.6 54.85 487.45 53.35 488.85 52.75 490 50.35 491.1 50.35 491.4 49.15 489.45 47.05 486.9 47.05 486.6 46.15
M 487.75 28
L 487.5 30.15 488.35 33.15 486.65 36.15 484.7 35.85 482.75 31.35 479.65 29.55 477.95 31.65 478.25 36.5 483.3 38.6 485.55 41 488.35 41 488.9 42.8 490.3 42.8 491.15 41.3 492 41.3 490.3 38.3 490.6 33.75 491.7 33.45 491.7 31.05 490.3 27.15 490.3 27.1 488.6 27.1 487.75 28
M 502.05 23.2
L 500.95 21.4 499.25 22 500.4 25 501.5 24.7 502.05 23.2
M 612.25 22.9
L 608.9 22 607.2 22.9 603.85 19.25 602.7 19.25 601.85 18.35 601.6 15.05 601.05 14.7 601.3 10.2 596.85 11.7 596.25 14.15 595.15 15.05 595.15 15.95 596.55 17.45 596 19.25 597.1 22 598.5 23.8 600.45 23.5 604.95 26.2 605.25 27.1 610.3 26.5 611.1 24.7 612.25 24.1 612.25 22.9 Z" />
        </g>
    </defs>

    <g transform="matrix( 1, 0, 0, 1, 0,0) ">
        <use xlink:href="#Layer0_0_FILL" />
    </g>
</svg>